<?xml version="1.0" encoding="utf-8"?>
<!-- Generator: Adobe Illustrator 25.1.0, SVG Export Plug-In . SVG Version: 6.00 Build 0)  -->
<svg version="1.1" id="Layer_1" xmlns="http://www.w3.org/2000/svg" xmlns:xlink="http://www.w3.org/1999/xlink" x="0px" y="0px"
	 viewBox="0 0 300 296" style="enable-background:new 0 0 300 296;" xml:space="preserve">
<style type="text/css">
	.st0{fill:#FFFFFF;}
</style>
<g transform="translate(0.000000,296.000000) scale(0.100000,-0.100000)">
	<path class="st0" d="M1323,2954.5c-151.5-20-302-65.4-463.9-141.3c-56-26.4-128.7-54.8-160.9-64.3
		c-127.7-35.9-360.1-269-488.8-491.5C-111.2,1702.4-60.4,1011.6,339.2,510.5c119.3-148.7,293.7-294.3,369.5-305.9
		c20.8-3.2,87.2-28.5,147.4-57C1093.7,36.9,1261.8-1,1516.1,0c220,1.1,461.8,58,639.3,149.8c36.3,19,67.5,34.8,70.6,35.9
		c3.1,0,10.4,3.2,15.6,6.3c6.2,4.2,30.1,10.5,54,14.8c56,9.5,140.1,69.6,250.1,178.3c213.8,211,356,469.4,423.4,767.9
		c37.4,163.5,41.5,432.5,9.3,603.3c-31.1,174-109,378.7-195.1,517.9c-145.3,234.2-398.5,479.9-495,479.9
		c-12.5,0-67.5,22.2-122.5,48.5c-225.2,108.6-398.5,151.9-624.8,157.2C1458,2960.8,1360.4,2958.7,1323,2954.5z M1779.7,2907
		c42.6-9.5,115.2-29.5,160.9-44.3c94.4-30.6,260.5-105.5,252.2-115c-3.1-3.2-33.2,8.4-66.4,25.3c-89.3,45.4-229.4,93.9-349.7,120.2
		c-139.1,29.5-392.3,32.7-531.4,4.2c-124.5-24.3-262.6-71.7-363.2-122.4c-104.8-53.8-72.6-47.5,56,10.5
		c182.7,81.2,357,117.1,568.7,117.1c212.8,0,398.5-41.1,573.9-124.5c42.6-21.1,92.4-39,109-41.1c127.7-12.7,202.4-58,356-216.2
		c210.7-217.3,350.8-496.8,402.7-805.9c20.8-121.3,14.5-426.1-10.4-540c-63.3-282.7-187.8-520-378.8-722.5
		c-118.3-126.6-219-203.6-276.1-213.1c-22.8-3.2-88.2-30.6-145.3-59.1c-358-183.5-782.5-202.5-1157.2-52.7
		c-54,21.1-122.5,53.8-152.6,71.7c-29.1,17.9-75.8,35.9-103.8,40.1c-39.4,5.3-66.4,21.1-132.8,72.8
		C429.5,440.9,295.6,606.5,200.1,799.5c-107.9,215.2-151.5,385-160.9,630.8c-4.2,131.8-2.1,179.3,16.6,288
		c37.4,221.5,111,410.3,230.4,592.8c119.3,181.4,340.4,390.3,429.7,406.1c22.8,3.2,86.1,29.5,140.1,58
		c150.5,77,301,124.5,482.6,151.9C1407.1,2937.6,1703.9,2923.9,1779.7,2907z"/>
	<path class="st0" d="M1281.5,2855.3c-142.2-25.3-374.7-105.5-420.3-143.4c-6.2-5.3-48.8-15.8-94.4-24.3
		c-72.6-12.7-92.4-21.1-145.3-62.2c-33.2-26.4-103.8-92.8-154.6-146.6c-189.9-199.4-310.3-435.6-370.5-719.4
		c-29.1-142.4-31.1-399.8-4.2-540c68.5-352.3,252.2-662.4,521-880.7c67.5-54.8,80.9-61.2,140.1-67.5c44.6-5.3,99.6-23.2,165-53.8
		c214.8-99.1,405.8-137.1,638.3-127.6c200.3,7.4,343.5,43.2,550,136.1c45.7,20,110,40.1,143.2,44.3c49.8,6.3,71.6,16.9,124.5,57
		c187.8,143.4,352.9,362.8,447.3,593.8c240.8,591.7,71.6,1282.6-412,1680.3c-86.1,70.7-96.5,75.9-164,86.5
		c-43.6,7.4-115.2,31.6-180.6,61.2c-59.2,26.4-162.9,63.3-230.4,81.2c-107.9,27.4-143.2,31.6-298.9,35.9
		C1418.5,2868,1333.4,2864.8,1281.5,2855.3z M1707,2818.4c31.1-6.3,73.7-13.7,93.4-17.9c59.2-11.6,181.6-54.8,278.1-98.1
		c49.8-22.2,120.4-45.4,156.7-51.7c79.9-14.8,142.2-59.1,267.8-188.8c185.8-194.1,308.2-432.5,367.4-715.1
		c24.9-121.3,27-395.5,4.2-519c-52.9-284.8-186.8-543.2-385-745.7C2375.4,365,2311,322.8,2229,307c-38.4-7.4-109-31.6-156.7-53.8
		c-223.1-104.4-455.6-146.6-693.3-124.5c-130.8,12.7-311.3,61.2-434.8,117.1c-57.1,26.4-133.9,52.7-170.2,59.1
		c-75.8,13.7-100.7,28.5-197.2,113.9c-293.7,261.6-468.1,654-468.1,1050.6c0,223.6,41.5,416.6,130.8,608.6
		c97.6,208.8,212.8,357.6,388.1,502.1c59.2,48.5,77.8,58,147.4,72.8c44.6,8.4,98.6,25.3,119.3,35.9c58.1,29.5,199.3,83.3,252.2,98.1
		c84.1,21.1,173.3,39,233.5,44.3C1443.4,2837.4,1642.7,2828.9,1707,2818.4z"/>
	<path class="st0" d="M1397.8,2702.4c-66.4-23.2-99.6-53.8-133.9-121.3c-23.9-47.5-24.9-60.1-19.7-137.1c3.1-47.5,8.3-97,10.4-111.8
		c2.1-14.8,5.2-31.6,5.2-39c1-6.3,8.3-20,17.6-28.5c8.3-9.5,18.7-32.7,21.8-52.7c5.2-32.7,1-41.1-27-64.3
		c-48.8-43.2-42.6-67.5,36.3-140.3l68.5-62.2l-48.8-7.4c-38.4-6.3-58.1-17.9-92.4-52.7c-24.9-24.3-47.7-58-51.9-73.8
		c-16.6-67.5,69.5-155.1,136-138.2c31.1,7.4,106.9,82.3,106.9,104.4c0,22.2,41.5,69.6,61.2,69.6c21.8,0,50.9-32.7,77.8-86.5
		c10.4-21.1,37.4-51.7,60.2-67.5c36.3-26.4,43.6-27.4,79.9-15.8c58.1,16.9,98.6,68.6,90.3,115c-10.4,70.7-80.9,139.2-153.6,148.7
		l-40.5,6.3l57.1,47.5c85.1,70.7,99.6,126.6,42.6,158.2c-33.2,17.9-33.2,51.7-1,108.6c31.1,57,51.9,207.8,35.3,266.9
		c-14.5,57-32.2,89.7-66.4,123.4C1608.4,2715,1493.2,2736.1,1397.8,2702.4z M1584.6,2676c54-23.2,106.9-89.7,122.5-151.9
		c12.5-55.9,6.2-134-12.5-145.6c-5.2-4.2-7.3-22.2-4.2-41.1c5.2-28.5,2.1-41.1-19.7-64.3c-18.7-20-25.9-40.1-25.9-68.6
		c0-62.2-15.6-88.6-68.5-120.2c-64.3-39-113.1-38-176.4,2.1c-52.9,32.7-63.3,52.7-65.4,123.4c-1,29.5-8.3,47.5-28,66.5
		c-20.8,19-24.9,31.6-20.8,51.7c4.2,13.7-1,48.5-9.3,74.9c-34.2,102.3,20.8,229.9,117.3,273.2C1433,2693.9,1542,2693.9,1584.6,2676z
		 M1396.7,2052.6l92.4-80.2l86.1,72.8c105.9,89.7,109,90.7,126.6,75.9c29.1-24.3,15.6-47.5-73.7-120.2
		c-48.8-40.1-84.1-75.9-78.9-79.1c4.2-3.2,11.4-14.8,15.6-24.3c8.3-23.2,21.8-24.3,38.4-3.2c37.4,45.4,145.3-15.8,170.2-97
		c9.3-28.5-32.2-77-65.4-77c-11.4,0-21.8-7.4-23.9-15.8c-5.2-26.4-86.1,57-97.6,99.1c-7.3,26.4-20.8,42.2-48.8,57
		c-20.8,10.5-38.4,25.3-38.4,31.6c0,7.4,4.2,7.4,12.5-1.1c7.3-7.4,17.6-12.7,22.8-12.7c6.2,0,0,7.4-13.5,16.9l-23.9,16.9l24.9,17.9
		c50.9,33.8,184.7,151.9,184.7,161.4c0,16.9-14.5,6.3-114.2-81.2c-51.9-46.4-110-96-127.7-109.7c-27-21.1-29.1-24.3-9.3-19
		c12.5,3.2,22.8,3.2,22.8,1.1c0-5.3-55-29.5-63.3-27.4c-3.1,1.1-12.5-19-19.7-43.2c-8.3-25.3-31.1-61.2-54-83.3
		c-43.6-43.2-55-49.6-45.7-24.3c4.2,10.5-1,15.8-16.6,15.8c-31.1,0-70.6,40.1-70.6,71.7c0,16.9,16.6,42.2,45.7,71.7
		c48.8,50.6,88.2,60.1,121.4,29.5c20.8-19,57.1-12.7,44.6,7.4c-3.1,6.3,0,15.8,7.3,21.1c11.4,7.4,9.3,12.7-10.4,26.4
		c-52.9,38-148.4,123.4-153.6,137.1c-6.2,15.8,13.5,46.4,30.1,46.4C1299.2,2131.7,1345.9,2095.9,1396.7,2052.6z"/>
	<path class="st0" d="M1412.3,2663.3c-50.9-19-75.8-41.1-99.6-88.6c-24.9-49.6-35.3-106.5-25.9-147.7l7.3-32.7l18.7,36.9
		c10.4,21.1,15.6,48.5,12.5,65.4c-6.2,34.8,19.7,84.4,61.2,119.2c93.4,75.9,234.5,25.3,269.8-94.9c8.3-31.6,7.3-38-12.5-51.7
		c-12.5-8.4-39.4-13.7-60.2-11.6c-25.9,1.1-46.7-4.2-63.3-17.9c-25.9-21.1-25.9-21.1-54,0c-21.8,14.8-41.5,19-76.8,15.8
		c-51.9-4.2-76.8-25.3-76.8-64.3c0-17.9,4.2-15.8,29.1,14.8c22.8,26.4,37.4,34.8,63.3,34.8c79.9,0,84.1-72.8,6.2-103.4
		c-50.9-19-77.8-15.8-77.8,10.5c0,25.3-17.6,19-24.9-9.5c-9.3-36.9,2.1-58,34.2-65.4c37.4-9.5,52.9-24.3,51.9-50.6v-22.2l-9.3,22.2
		c-16.6,43.2-31.1,39-30.1-8.4c1-25.3,4.2-57,8.3-70.7c7.3-28.5,85.1-74.9,125.6-74.9c23.9,0,96.5,32.7,117.3,52.7
		c14.5,13.7,25.9,138.2,13.5,134c-6.2-2.1-12.5-13.7-14.5-26.4c-4.2-27.4-22.8-30.6-22.8-4.2c0,24.3,19.7,44.3,43.6,44.3
		c29.1,0,61.2,41.1,49.8,64.3c-6.2,10.5-10.4,33.8-10.4,51.7c0,17.9-5.2,42.2-10.4,53.8c-8.3,13.7-7.3,20,0,20
		c6.2,0,13.5-14.8,17.6-32.7c7.3-41.1,23.9-20,23.9,31.6C1697.7,2615.9,1556.5,2717.1,1412.3,2663.3z M1632.3,2413.4
		c25.9-25.3,29.1-47.5,8.3-75.9c-13.5-19-17.6-19-58.1-5.3c-70.6,23.2-92.4,83.3-37.4,105.5
		C1573.2,2449.2,1602.2,2440.8,1632.3,2413.4z M1518.1,2333.2c22.8-41.1,29.1-73.8,15.6-75.9c-92.4-13.7-111,4.2-75.8,70.7
		c14.5,25.3,28,46.4,31.1,46.4C1493.2,2374.3,1505.7,2356.4,1518.1,2333.2z M1416.4,2288.9c0-19-2.1-21.1-15.6-9.5
		c-13.5,11.6-13.5,15.8-3.1,22.2C1416.4,2314.2,1416.4,2314.2,1416.4,2288.9z M1592.9,2295.2c0-8.4-7.3-15.8-15.6-15.8
		c-16.6,0-20.8,12.7-8.3,24.3C1580.4,2316.3,1592.9,2312.1,1592.9,2295.2z M1578.3,2190.8c17.6-25.3,4.2-52.7-37.4-74.9
		c-40.5-21.1-71.6-20-113.1,6.3c-30.1,19-34.2,25.3-28,53.8c9.3,49.6,21.8,59.1,72.6,53.8c25.9-3.2,55,0,65.4,5.3
		c14.5,9.5,19.7,7.4,22.8-6.3C1562.8,2219.3,1570,2201.3,1578.3,2190.8z"/>
	<path class="st0" d="M1537.9,2419.7c-18.7-17.9-5.2-46.4,30.1-61.2c47.7-20,65.4-20,73.7,1.1
		C1655.1,2395.4,1565.9,2448.2,1537.9,2419.7z M1601.2,2385.9c3.1-8.4-1-12.7-9.3-9.5c-7.3,2.1-15.6,10.5-17.6,17.9
		c-3.1,8.4,1,12.7,9.3,9.5C1590.8,2401.8,1599.1,2393.3,1601.2,2385.9z"/>
	<path class="st0" d="M1475.6,2327.9c-27-41.1-22.8-59.1,13.5-59.1c35.3,0,40.5,19,16.6,61.2l-13.5,25.3L1475.6,2327.9z"/>
	<path class="st0" d="M1360.4,2403.9c-19.7-16.9-25.9-30.6-21.8-43.2c8.3-19,51.9-25.3,62.3-7.4c3.1,6.3,15.6,10.5,27,10.5
		c16.6,0,20.8,6.3,17.6,29.5C1441.3,2432.3,1398.8,2437.6,1360.4,2403.9z"/>
	<path class="st0" d="M1271.1,2091.6c0-10.5,171.2-154,180.6-151.9c15.6,4.2,7.3,12.7-78.9,84.4
		C1283.6,2100.1,1271.1,2107.5,1271.1,2091.6z"/>
	<path class="st0" d="M1294,1878.6c-30.1-19-74.7-77-74.7-98.1c0-4.2,7.3-10.5,15.6-13.7c8.3-4.2,28,8.4,47.7,31.6
		c17.6,21.1,38.4,38,46.7,38c16.6,0,38.4,38,30.1,52.7C1350,1905,1332.4,1901.8,1294,1878.6z"/>
	<path class="st0" d="M1624,1873.3c0-19,9.3-29.5,35.3-42.2c18.7-9.5,40.5-28.5,47.7-42.2c7.3-14.8,22.8-26.4,33.2-26.4
		c33.2,0,20.8,42.2-27,90.7C1661.4,1906,1624,1914.4,1624,1873.3z"/>
	<path class="st0" d="M1664.5,1544.2c-19.7-7.4-46.7-31.6-61.2-52.7c-24.9-36.9-25.9-45.4-25.9-188.8c0-144.5,1-150.8,24.9-177.2
		c32.2-34.8,43.6-33.8,83,0l33.2,27.4l27-27.4c33.2-34.8,45.7-34.8,85.1,0l33.2,27.4l27-27.4c33.2-33.8,48.8-34.8,80.9-1.1
		c24.9,24.3,25.9,30.6,25.9,175.1c0,132.9-2.1,152.9-21.8,185.6c-31.1,50.6-73.7,70.7-139.1,63.3c-29.1-3.2-71.6-2.1-95.5,2.1
		C1713.3,1555.8,1687.3,1553.7,1664.5,1544.2z M1764.1,1505.2c17.6-12.7,23.9-12.7,48.8,0c43.6,23.2,78.9,17.9,113.1-15.8l30.1-30.6
		l2.1-143.4c0-79.1,1-149.8,2.1-156.1c1-7.4-11.4-14.8-27-16.9l-29.1-3.2v147.7c0,120.2-3.1,149.8-16.6,163.5
		c-20.8,22.2-31.1,21.1-56-4.2c-19.7-20-21.8-33.8-19.7-161.4l1-139.2l-27-3.2l-27-3.2v147.7c0,120.2-3.1,149.8-16.6,163.5
		c-20.8,22.2-31.1,21.1-57.1-5.3c-20.8-21.1-21.8-31.6-17.6-160.3l3.1-139.2l-28-3.2l-29.1-3.2V1290c1,104.4,5.2,158.2,14.5,176.1
		C1655.1,1514.7,1724.7,1534.7,1764.1,1505.2z"/>
	<path class="st0" d="M368.3,1523.1c-20.8-27.4-21.8-38-18.7-201.5l3.1-173l30.1-26.4c28-24.3,37.4-26.4,91.3-21.1
		c100.7,9.5,153.6,63.3,153.6,158.2c0,79.1-41.5,140.3-109,162.4c-25.9,8.4-32.2,16.9-37.4,53.8
		C472,1550.5,409.8,1575.9,368.3,1523.1z M441.9,1449.3l-2.1-66.5h45.7c36.3,0,51.9-6.3,73.7-27.4c23.9-24.3,27-36.9,27-93.9
		c0-61.2-2.1-68.6-32.2-94.9c-29.1-24.3-40.5-27.4-96.5-24.3l-63.3,3.2l-3.1,187.8L389,1521l28-3.2
		C444,1514.7,445,1513.6,441.9,1449.3z"/>
	<path class="st0" d="M440.9,1261.5V1193H471c41.5,0,63.3,25.3,63.3,72.8c0,48.5-14.5,64.3-59.2,64.3h-34.2V1261.5z"/>
	<path class="st0" d="M727.3,1525.2c-13.5-20-16.6-54.8-16.6-170.9c0-125.5,3.1-149.8,20.8-179.3c40.5-67.5,121.4-93.9,169.2-55.9
		c15.6,12.7,28,32.7,28,46.4c0,24.3-33.2,61.2-64.3,72.8c-16.6,6.3-18.7,22.2-18.7,131.8c0,111.8-2.1,128.7-21.8,154
		C795.8,1560,750.2,1561.1,727.3,1525.2z M804.1,1373.3c0-162.4,6.2-180.4,63.3-180.4c24.9,0,30.1-4.2,30.1-26.4
		c0-23.2-4.2-26.4-41.5-26.4c-30.1,0-48.8,7.4-72.6,29.5l-30.1,28.5l-1,152.9c-1,84.4-1,156.1-1,161.4c1,4.2,12.5,7.4,27,7.4h25.9
		V1373.3z"/>
	<path class="st0" d="M1023.1,1524.2c-19.7-25.3-21.8-42.2-21.8-189.9c0-170.9,7.3-203.6,47.7-225.7c19.7-11.6,28-10.5,50.9,4.2
		c14.5,9.5,25.9,22.2,25.9,27.4c0,16.9,28,11.6,35.3-5.3c15.6-42.2,107.9-30.6,111,13.7c3.1,43.2-4.2,84.4-22.8,132.9
		c-12.5,34.8-15.6,57-9.3,69.6c5.2,10.5,14.5,41.1,20.8,68.6c9.3,41.1,8.3,54.8-4.2,74.9c-22.8,33.8-54,41.1-86.1,20
		c-27-17.9-28-17.9-46.7,9.5C1096.8,1561.1,1052.2,1561.1,1023.1,1524.2z M1095.8,1444c-3.1-85.4,1-96,35.3-80.2
		c27,12.7,30.1,20,41.5,85.4c5.2,34.8,9.3,39,36.3,39h29.1l-13.5-58c-7.3-32.7-21.8-68.6-31.1-79.1c-17.6-20-17.6-22.2-1-41.1
		c17.6-20,47.7-115,47.7-150.8c0-12.7-8.3-19-24.9-19c-22.8,0-27,7.4-38.4,61.2c-14.5,66.5-34.2,97-63.3,97
		c-18.7,0-19.7-7.4-17.6-75.9c2.1-75.9,2.1-77-24.9-80.2l-28-3.2v190.9V1521l28-3.2C1097.8,1514.7,1098.9,1513.6,1095.8,1444z"/>
	<path class="st0" d="M2097.2,1528.4c-24.9-35.9-23.9-295.3,2.1-344.9c36.3-72.8,120.4-104.4,171.2-64.3
		c37.4,30.6,36.3,65.4-4.2,99.1c-17.6,14.8-35.3,27.4-40.5,27.4c-5.2,0-10.4,59.1-12.5,130.8c-2.1,110.8-6.2,134-22.8,152.9
		C2164.7,1559,2118,1557.9,2097.2,1528.4z M2174,1373.3c0-162.4,6.2-180.4,63.3-180.4c24.9,0,30.1-4.2,30.1-26.4
		c0-23.2-4.2-26.4-41.5-26.4c-30.1,0-48.8,7.4-72.6,29.5l-31.1,28.5v152.9c-1,84.4-1,156.1,0,161.4c0,4.2,11.4,7.4,25.9,7.4h25.9
		V1373.3z"/>
	<path class="st0" d="M2396.1,1529.5c-17.6-20-19.7-42.2-22.8-193l-3.1-171.9l27-33.8c31.1-36.9,54-36.9,94.4,1.1
		c22.8,20,22.8,20,43.6-3.2c27-28.5,70.6-29.5,97.6-2.1c18.7,20,19.7,26.4,8.3,83.3c-7.3,34.8-19.7,75.9-28,91.8
		c-9.3,19-11.4,34.8-5.2,42.2c5.2,7.4,15.6,38,21.8,69.6c10.4,48.5,9.3,61.2-4.2,82.3c-23.9,35.9-45.7,41.1-80.9,21.1
		c-30.1-17.9-31.1-17.9-55,8.4C2460.5,1557.9,2423.1,1559,2396.1,1529.5z M2466.7,1438.7c-4.2-71.7-2.1-77,16.6-77
		c28,0,54,27.4,54,55.9c0,51.7,11.4,70.7,42.6,70.7c16.6,0,30.1-1.1,30.1-2.1c-1-26.4-34.2-121.3-46.7-135
		c-16.6-17.9-15.6-21.1,4.2-49.6c11.4-15.8,27-59.1,35.3-94.9l14.5-66.5h-29.1c-27,0-29.1,4.2-41.5,61.2c-14.5,67.5-34.2,97-63.3,97
		c-18.7,0-19.7-6.3-16.6-75.9l3.1-77l-28-3.2l-29.1-3.2v190.9V1521l29.1-3.2l28-3.2L2466.7,1438.7z"/>
	<path class="st0" d="M1391.5,1234.1c-18.7-14.8-27-31.6-27-55.9c0-68.6,52.9-104.4,98.6-67.5c35.3,28.5,37.4,104.4,3.1,128.7
		C1436.2,1261.5,1424.7,1260.5,1391.5,1234.1z M1458,1170.8c0-40.1-1-42.2-28-39c-24.9,3.2-29.1,8.4-32.2,43.2
		c-3.1,36.9-2.1,39,28,39C1456.9,1214.1,1458,1212,1458,1170.8z"/>
	<path class="st0" d="M1048,791.1c-4.2-6.3-13.5-8.4-21.8-5.3c-8.3,3.2-11.4,0-7.3-10.5c3.1-10.5,0-12.7-10.4-8.4
		c-13.5,5.3-13.5,1.1,1-31.6c24.9-52.7,40.5-47.5,45.7,14.8C1058.4,805.9,1058.4,809,1048,791.1z"/>
	<path class="st0" d="M1321,791.1c6.2-7.4,12.5-30.6,12.5-51.7c0-27.4,4.2-39,15.6-39c10.4,0,15.6,11.6,15.6,34.8
		c0,25.3-7.3,38-28,51.7C1319.9,797.4,1313.7,799.5,1321,791.1z"/>
	<path class="st0" d="M1092.6,765.8c3.1-17.9-1-28.5-12.5-32.7c-9.3-3.2-16.6-14.8-16.6-24.3c1-14.8,2.1-14.8,15.6,3.2
		c7.3,10.5,18.7,15.8,23.9,12.7c6.2-3.2,12.5,10.5,14.5,30.6c3.1,29.5,0,36.9-13.5,36.9C1091.6,792.2,1088.5,785.8,1092.6,765.8z"/>
	<path class="st0" d="M1179.8,779.5c-7.3-7.4-12.5-19-12.5-27.4c0-7.4-5.2-10.5-10.4-7.4c-6.2,4.2-8.3,11.6-5.2,16.9
		c4.2,5.3,2.1,9.5-3.1,9.5s-9.3-13.7-9.3-31.6c0-16.9,4.2-31.6,9.3-31.6s6.2,5.3,3.1,10.5c-3.1,6.3-2.1,10.5,4.2,10.5
		c5.2,0,12.5-8.4,14.5-17.9c3.1-10.5,5.2-2.1,6.2,19c0,20,6.2,42.2,13.5,49.6c7.3,7.4,10.4,12.7,7.3,12.7
		C1194.4,792.2,1187.1,786.9,1179.8,779.5z"/>
	<path class="st0" d="M1283.6,779.5c-14.5-14.8-16.6-82.3-3.1-82.3c5.2,0,11.4,21.1,13.5,47.5c2.1,26.4,3.1,47.5,3.1,47.5
		C1296.1,792.2,1290.9,786.9,1283.6,779.5z"/>
	<path class="st0" d="M1904.2,771.1c0-11.6-5.2-21.1-11.4-21.1c-6.2,0-9.3,7.4-6.2,14.8c4.2,10.5,1,13.7-9.3,9.5
		c-17.6-6.3-18.7-20-1-28.5c10.4-5.3,10.4-7.4,0-12.7c-17.6-8.4-16.6-22.2,1-28.5c10.4-4.2,13.5-1.1,9.3,9.5
		c-3.1,7.4,0,14.8,5.2,14.8c6.2,0,13.5-10.5,15.6-23.2c2.1-13.7,5.2,1.1,6.2,31.6c0,29.5-1,54.8-4.2,54.8S1904.2,782.7,1904.2,771.1
		z"/>
	<path class="st0" d="M1460,763.7c-7.3-10.5-10.4-12.7-7.3-5.3c3.1,6.3,1,12.7-4.2,12.7c-6.2,0-10.4-15.8-10.4-33.8
		c1-19,3.1-26.4,6.2-15.8c2.1,9.5,8.3,17.9,13.5,17.9c5.2,0,14.5-8.4,19.7-17.9c12.5-22.2,13.5-3.2,3.1,36.9
		C1473.5,780.6,1472.5,780.6,1460,763.7z"/>
	<path class="st0" d="M1712.2,763.7c-12.5-29.5-13.5-67.5-1-63.3c5.2,2.1,12.5,21.1,14.5,42.2
		C1729.9,784.8,1724.7,792.2,1712.2,763.7z"/>
	<path class="st0" d="M1779.7,770c0-6.3-6.2-9.5-13.5-6.3c-10.4,4.2-14.5-4.2-14.5-25.3s3.1-26.4,9.3-17.9
		c6.2,10.5,10.4,10.5,18.7-2.1c7.3-11.6,10.4-6.3,10.4,24.3c0,21.1-2.1,39-5.2,39C1781.8,781.6,1779.7,776.3,1779.7,770z"/>
	<path class="st0" d="M1841.9,764.7c0-9.5-6.2-14.8-13.5-11.6c-8.3,3.2-13.5-3.2-13.5-14.8c0-11.6,6.2-17.9,13.5-15.8
		c6.2,3.2,14.5-3.2,16.6-12.7c3.1-9.5,5.2,2.1,6.2,27.4c0,24.3-1,44.3-4.2,44.3C1844,781.6,1841.9,774.2,1841.9,764.7z"/>
	<path class="st0" d="M1198.5,739.4c0-19,4.2-30.6,10.4-26.4c6.2,3.2,10.4,15.8,10.4,26.4s-4.2,23.2-10.4,26.4
		C1202.7,770,1198.5,758.4,1198.5,739.4z"/>
	<path class="st0" d="M1241.1,742.6c0-17.9-7.3-35.9-13.5-38c-10.4-4.2-10.4-6.3,0-6.3c16.6-1.1,25.9,22.2,19.7,53.8
		C1244.2,771.1,1242.1,769,1241.1,742.6z"/>
	<path class="st0" d="M1419.6,734.1c0-23.2,2.1-31.6,4.2-17.9c2.1,12.7,2.1,31.6,0,42.2C1420.6,767.9,1418.5,757.4,1419.6,734.1z"/>
	<path class="st0" d="M1603.2,738.4c0-22.2,4.2-28.5,15.6-24.3c8.3,4.2,15.6,1.1,15.6-6.3c0-6.3,5.2-8.4,10.4-5.3
		c6.2,3.2,10.4,17.9,10.4,30.6c0,17.9-7.3,26.4-25.9,29.5C1606.4,767.9,1603.2,764.7,1603.2,738.4z"/>
	<path class="st0" d="M1678,739.4c0-20,2.1-28.5,5.2-17.9c2.1,9.5,2.1,26.4,0,36.9C1680,767.9,1678,759.5,1678,739.4z"/>
	<path class="st0" d="M980.6,737.3c0-9.5,5.2-21.1,11.4-24.3c17.6-11.6,20.8,0,4.2,22.2C982.6,753.1,981.6,753.1,980.6,737.3z"/>
	<path class="st0" d="M1642.7,629.7c-18.7-13.7-27-86.5-9.3-75.9c5.2,4.2,12.5,0,14.5-6.3c3.1-7.4,6.2,8.4,6.2,35.9
		c1,28.5,6.2,50.6,14.5,53.8c6.2,3.2,8.3,6.3,2.1,6.3C1665.5,643.4,1652,637.1,1642.7,629.7z"/>
	<path class="st0" d="M1212,586.5c0-28.5,2.1-40.1,4.2-23.2c2.1,15.8,2.1,39,0,52.7C1214.1,628.7,1212,616,1212,586.5z"/>
	<path class="st0" d="M1492.2,626.6c-7.3-2.1-13.5-19-13.5-35.9c0-17.9,4.2-29.5,9.3-26.4c5.2,4.2,11.4,0,14.5-6.3
		c2.1-7.4,6.2,6.3,8.3,31.6C1516.1,635,1515,636.1,1492.2,626.6z"/>
	<path class="st0" d="M1565.9,622.3c-3.1-6.3-8.3-31.6-9.3-55.9c-1-23.2,0-34.8,2.1-24.3c3.1,9.5,9.3,15.8,14.5,12.7
		c5.2-4.2,9.3,12.7,9.3,35.9C1582.5,635,1578.3,642.4,1565.9,622.3z"/>
	<path class="st0" d="M1710.1,586.5c0-28.5,2.1-40.1,4.2-23.2c2.1,15.8,2.1,39,0,52.7C1712.2,628.7,1710.1,616,1710.1,586.5z"/>
	<path class="st0" d="M1383.2,604.4c-5.2-22.2,1-54.8,11.4-54.8s13.5,61.2,2.1,67.5C1391.5,620.2,1385.3,615,1383.2,604.4z"/>
	<path class="st0" d="M1429.9,586.5c0-23.2,2.1-31.6,4.2-17.9c2.1,12.7,2.1,31.6,0,42.2C1431,620.2,1428.9,609.7,1429.9,586.5z"/>
	<path class="st0" d="M1455.9,616c-2.1-5.3-1-25.3,3.1-45.4l6.2-36.9l2.1,45.4C1468.3,620.2,1464.2,633.9,1455.9,616z"/>
	<path class="st0" d="M1527.5,616c-11.4-10.5-8.3-53.8,3.1-61.2c6.2-4.2,10.4,8.4,10.4,30.6C1541,624.5,1538.9,628.7,1527.5,616z"/>
	<path class="st0" d="M1592.9,607.6c0-8.4,5.2-15.8,10.4-15.8c6.2,0,10.4,7.4,10.4,15.8s-4.2,15.8-10.4,15.8
		C1598.1,623.4,1592.9,616,1592.9,607.6z"/>
	<path class="st0" d="M1730.9,581.2c0-26.4,2.1-36.9,4.2-23.2c2.1,12.7,2.1,33.8,0,47.5C1733,618.1,1730.9,607.6,1730.9,581.2z"/>
	<path class="st0" d="M1676.9,582.3c-7.3-5.3-11.4-15.8-9.3-23.2c3.1-10.5,8.3-7.4,17.6,9.5C1698.7,593.9,1697.7,596,1676.9,582.3z"
		/>
	<path class="st0" d="M1352.1,556.9c-3.1-14.8,0-25.3,7.3-25.3c7.3,0,10.4,10.5,7.3,25.3c-2.1,13.7-6.2,24.3-7.3,24.3
		S1354.2,570.7,1352.1,556.9z"/>
	<path class="st0" d="M1592.9,559.1c0-11.6,5.2-17.9,10.4-14.8c6.2,3.2,10.4,13.7,10.4,22.2s-4.2,14.8-10.4,14.8
		C1598.1,581.2,1592.9,571.7,1592.9,559.1z"/>
	<path class="st0" d="M858.1,196.2c82-44.3,204.4-89.7,313.4-118.1c144.3-36.9,401.6-45.4,558.3-20
		c127.7,22.2,291.6,74.9,389.2,127.6c84.1,45.4,71.6,42.2-54-13.7C1883.5,90.7,1706,53.8,1498.4,53.8
		c-208.6,0-424.5,48.5-594.7,132.9C822.8,227.9,783.4,235.2,858.1,196.2z"/>
</g>
</svg>
