<?xml version="1.0" standalone="no"?>
<!DOCTYPE svg PUBLIC "-//W3C//DTD SVG 20010904//EN"
 "http://www.w3.org/TR/2001/REC-SVG-20010904/DTD/svg10.dtd">
<svg version="1.0" xmlns="http://www.w3.org/2000/svg"
  viewBox="0 0 300.000000 316.000000"
 preserveAspectRatio="xMidYMid meet">
<metadata>
Created by potrace 1.10, written by Peter Selinger 2001-2011
</metadata>
<g transform="translate(0.000000,316.000000) scale(0.100000,-0.100000)"
fill="#000000" stroke="none">
<path d="M155 3133 c3 -15 34 -90 68 -167 l62 -140 6 54 c8 68 14 84 77 193
47 80 49 87 29 87 -17 0 -33 -21 -75 -95 -29 -53 -56 -93 -60 -91 -7 4 -63
128 -76 169 -3 9 -13 17 -22 17 -13 0 -15 -6 -9 -27z"/>
<path d="M508 3140 c-78 -86 -188 -283 -188 -338 0 -38 177 -277 227 -305 12
-7 13 -5 4 11 -29 54 1 227 60 344 46 90 125 201 184 257 l54 51 -30 0 c-37 0
-33 4 -197 -215 -17 -23 -72 -145 -92 -205 -14 -41 -20 -82 -18 -112 2 -26 1
-48 -1 -48 -7 0 -42 44 -63 80 -12 19 -37 54 -56 78 -29 37 -34 49 -29 82 7
53 58 150 128 243 32 43 59 82 59 88 0 15 -24 9 -42 -11z"/>
<path d="M835 3042 c-119 -146 -146 -191 -186 -314 -29 -88 -34 -97 -60 -102
-33 -6 -39 -26 -9 -26 11 0 20 5 20 10 0 6 4 10 9 10 5 0 6 -26 4 -59 -3 -34
-1 -61 5 -65 6 -3 25 20 43 51 17 32 41 74 52 93 11 19 26 44 33 55 8 11 14
29 14 40 0 12 6 27 13 34 10 10 9 11 -5 6 -9 -4 -19 -18 -23 -32 -4 -19 -55
-98 -92 -142 -1 -2 -5 -2 -8 1 -3 3 1 12 9 21 8 8 12 17 9 20 -9 10 36 139 70
200 18 31 64 95 102 142 126 155 138 175 111 175 -8 0 -58 -53 -111 -118z"/>
<path d="M1180 3152 c0 -5 -11 -22 -25 -38 -13 -15 -30 -41 -36 -56 -6 -15
-15 -25 -20 -22 -5 3 -9 0 -9 -6 0 -6 -19 -32 -43 -58 -68 -76 -127 -159 -168
-237 -9 -16 -21 -29 -27 -27 -7 1 -12 -2 -12 -8 0 -5 -4 -10 -10 -10 -5 0 -10
9 -10 19 0 11 -4 22 -9 26 -12 7 -26 -59 -16 -74 21 -34 91 17 121 88 8 19 18
38 22 41 13 10 62 79 62 88 0 12 71 94 77 88 3 -3 24 23 46 57 22 34 51 75 64
90 27 33 29 47 8 47 -8 0 -15 -4 -15 -8z"/>
<path d="M1250 3152 c0 -4 -17 -31 -39 -59 -21 -28 -56 -88 -77 -132 -23 -46
-44 -78 -51 -76 -7 2 -15 -5 -19 -17 -3 -11 -21 -37 -38 -57 -18 -20 -42 -52
-54 -71 -37 -62 -106 -121 -228 -196 -44 -27 -85 -65 -79 -74 9 -15 65 -17 77
-3 6 7 25 20 42 28 55 26 193 142 225 189 17 25 37 49 45 53 15 9 76 128 76
149 0 8 5 14 10 14 6 0 10 8 10 18 0 9 7 31 16 47 9 17 17 40 19 53 1 13 14
36 29 51 14 15 26 32 26 37 0 6 8 19 19 28 24 22 60 13 85 -21 16 -22 17 -30
8 -58 -7 -17 -12 -39 -12 -48 0 -18 58 -59 71 -51 12 7 39 -38 39 -63 0 -13 5
-23 10 -23 6 0 11 -15 11 -32 2 -31 2 -31 6 -5 2 15 -4 51 -15 80 l-19 53 55
18 c29 10 54 16 55 14 39 -77 51 -97 57 -93 10 6 26 -14 33 -40 4 -16 5 -15 6
6 1 25 -25 114 -39 134 -22 31 -17 40 20 41 20 1 38 -4 39 -10 1 -6 4 -63 6
-126 2 -63 7 -113 12 -110 4 3 7 12 6 19 -1 8 6 21 15 28 9 7 12 13 6 13 -15
0 -25 38 -12 46 19 12 27 52 15 78 -12 26 -30 37 -23 14 11 -34 15 -78 7 -78
-4 0 -11 28 -15 63 -4 34 -9 80 -11 101 -7 57 -14 76 -32 76 -10 0 -13 -5 -8
-17 33 -81 32 -87 -16 -85 -39 1 -60 27 -48 60 13 33 12 38 -12 39 -17 2 -19
-1 -10 -10 6 -6 11 -17 11 -25 0 -9 -7 -6 -20 9 -30 37 -24 9 16 -65 19 -37
33 -73 30 -79 -2 -7 -5 -3 -5 7 -1 11 -4 16 -7 13 -4 -3 -14 -2 -23 2 -10 6
-31 4 -56 -6 -54 -19 -95 -25 -95 -12 0 6 -4 8 -9 5 -5 -3 -11 1 -15 9 -7 19
3 47 15 39 5 -3 6 2 3 10 -3 9 4 25 19 38 30 29 52 68 37 68 -10 0 -20 -10
-55 -55 -11 -13 -18 -16 -21 -8 -18 41 -47 63 -85 63 -21 0 -39 -3 -39 -8z"/>
<path d="M1966 3135 c7 -28 -41 -135 -60 -135 -6 0 -22 -15 -36 -32 -14 -18
-33 -40 -42 -50 -13 -13 -14 -18 -5 -18 8 0 40 27 71 60 31 32 55 52 54 42 -2
-12 4 -17 22 -18 14 0 33 -4 43 -8 10 -5 23 -3 32 4 12 10 16 9 21 -5 5 -13 9
-14 15 -3 13 20 11 28 -6 22 -8 -4 -15 -2 -15 4 0 17 27 32 46 25 16 -6 17 -4
7 8 -10 12 -10 18 0 28 9 10 9 11 -5 6 -9 -4 -19 -13 -22 -21 -3 -8 -12 -14
-20 -14 -8 0 -18 -9 -21 -20 -3 -11 -13 -20 -22 -20 -9 0 -13 6 -9 15 6 17
-19 21 -29 5 -10 -17 -25 -11 -25 10 0 11 8 25 18 31 16 10 18 18 11 53 -5 23
-8 44 -9 49 0 4 -5 7 -10 7 -6 0 -8 -11 -4 -25z"/>
<path d="M2040 3145 c0 -13 4 -14 20 -5 11 6 20 13 20 15 0 3 -9 5 -20 5 -11
0 -20 -7 -20 -15z"/>
<path d="M2153 3153 c-7 -2 -13 -17 -12 -31 0 -16 3 -21 6 -12 3 8 15 23 27
32 21 17 9 24 -21 11z"/>
<path d="M2210 3138 c0 -15 -3 -33 -6 -42 -4 -11 -1 -16 11 -16 10 0 15 5 12
14 -3 7 0 19 6 25 8 8 7 16 -6 28 -16 16 -17 16 -17 -9z"/>
<path d="M2262 3095 c-1 -36 2 -65 6 -65 13 0 38 20 25 20 -6 0 -11 9 -10 20
1 11 5 20 9 20 5 0 6 12 3 28 -6 26 -6 26 9 8 15 -19 16 -19 16 7 0 23 -4 27
-28 27 -27 0 -28 -1 -30 -65z"/>
<path d="M2390 3142 c0 -14 -12 -29 -32 -42 -18 -11 -28 -20 -21 -20 16 0 34
-111 21 -128 -8 -9 -7 -11 6 -6 12 4 16 0 16 -15 0 -12 5 -21 10 -21 12 0 13
-5 -5 54 -11 35 -12 53 -5 60 8 8 9 6 5 -5 -4 -10 0 -19 9 -22 10 -4 13 -1 10
8 -6 14 21 50 37 50 20 0 20 16 1 22 -12 3 -22 8 -23 12 0 3 -2 16 -3 29 -4
33 -26 53 -26 24z m15 -63 c21 2 9 -32 -12 -35 -24 -4 -30 16 -16 52 6 17 7
17 13 0 3 -10 10 -17 15 -17z"/>
<path d="M2531 3113 c1 -53 6 -49 11 10 2 20 0 37 -4 37 -4 0 -8 -21 -7 -47z"/>
<path d="M2613 3154 c4 -4 22 -13 40 -20 17 -6 49 -19 70 -28 20 -9 37 -12 37
-7 0 5 -24 18 -52 29 -68 26 -105 37 -95 26z"/>
<path d="M2906 3103 c14 -32 40 -85 57 -118 28 -52 32 -56 35 -34 2 15 -9 50
-26 80 -16 30 -34 71 -41 92 -9 25 -19 37 -31 37 -18 0 -17 -4 6 -57z"/>
<path d="M2450 3131 c0 -11 5 -23 10 -26 6 -3 10 3 10 14 0 11 -4 23 -10 26
-5 3 -10 -3 -10 -14z"/>
<path d="M13 3133 c9 -2 25 -2 35 0 9 3 1 5 -18 5 -19 0 -27 -2 -17 -5z"/>
<path d="M2042 3096 c1 -14 6 -22 10 -20 4 3 8 1 8 -4 0 -6 9 -8 20 -5 16 4
18 9 9 19 -6 7 -18 10 -26 7 -12 -5 -15 -2 -10 10 3 9 2 17 -3 17 -5 0 -9 -11
-8 -24z"/>
<path d="M2168 3104 c-5 -4 -8 -16 -8 -28 0 -14 3 -17 11 -9 6 6 9 19 7 28 -1
9 -6 13 -10 9z"/>
<path d="M2772 3079 c2 -6 22 -18 43 -27 22 -8 53 -24 68 -35 16 -10 30 -17
33 -14 7 7 -41 40 -95 66 -52 24 -54 25 -49 10z"/>
<path d="M70 3051 c0 -22 13 -41 29 -40 10 0 11 2 4 6 -7 2 -13 11 -13 18 0 8
-4 17 -10 20 -5 3 -10 2 -10 -4z"/>
<path d="M2442 3013 c-6 -12 -12 -31 -12 -43 0 -12 -4 -19 -8 -16 -4 2 -6 -11
-4 -30 2 -18 8 -32 12 -29 12 7 32 90 28 116 l-3 24 -13 -22z"/>
<path d="M2145 2970 c-13 -26 -14 -29 0 -24 8 4 15 12 15 20 0 8 5 14 10 14 6
0 10 5 10 10 0 20 -20 9 -35 -20z"/>
<path d="M2302 2970 c-7 -11 -18 -20 -26 -20 -8 0 -16 -7 -20 -15 -3 -8 -15
-15 -27 -15 -15 0 -19 -3 -12 -12 8 -12 9 -25 3 -45 -1 -5 -3 -17 -4 -28 0
-11 -10 -21 -21 -23 -11 -2 -24 -9 -30 -14 -7 -8 -5 -9 8 -5 9 4 17 2 17 -2 0
-5 -16 -9 -35 -8 -27 1 -35 5 -32 16 1 9 10 15 20 15 9 -1 14 2 11 7 -7 13
-20 11 -36 -4 -7 -8 -25 -17 -39 -20 -15 -4 -29 -13 -32 -21 -5 -11 0 -11 24
1 51 26 48 6 -5 -31 -18 -12 -18 -13 0 -13 11 0 24 6 29 13 12 15 46 21 63 11
7 -5 12 -4 12 3 0 6 10 8 24 4 21 -5 24 -1 29 33 9 52 31 82 48 66 15 -15 53
-18 44 -4 -3 5 -19 12 -35 16 -17 4 -30 9 -30 11 0 14 22 44 33 44 24 1 49 28
40 44 -7 13 -10 13 -21 -4z"/>
<path d="M1950 2958 c0 -9 -6 -18 -12 -21 -16 -5 -9 -13 21 -22 15 -5 21 -4
17 3 -3 6 3 13 14 17 11 3 20 11 20 16 0 13 -17 11 -26 -3 -5 -7 -11 -5 -21 7
-11 16 -13 16 -13 3z"/>
<path d="M1217 2941 c3 -11 11 -22 19 -25 11 -4 11 0 -2 19 -20 30 -24 31 -17
6z"/>
<path d="M2022 2930 c-12 -13 -19 -26 -16 -29 3 -3 13 3 21 14 11 14 17 16 20
7 5 -13 23 -7 23 9 0 6 -4 8 -9 5 -5 -4 -11 -1 -13 6 -3 7 -13 2 -26 -12z"/>
<path d="M3 2908 c1 -21 8 -40 14 -43 7 -2 13 -9 13 -16 0 -6 -7 -9 -15 -5 -8
3 -15 1 -15 -4 0 -6 9 -10 20 -10 25 0 25 23 0 75 l-20 40 3 -37z"/>
<path d="M1852 2889 c2 -8 -4 -14 -12 -14 -19 0 -39 -24 -40 -47 0 -9 -6 -19
-12 -21 -10 -4 -10 -6 0 -6 7 -1 17 10 23 23 11 24 49 43 49 25 0 -6 6 -9 13
-8 6 1 21 -2 31 -6 13 -6 31 -2 56 13 20 11 46 20 56 18 10 -2 13 -1 7 1 -7 3
-13 9 -13 14 0 5 -7 9 -16 9 -8 0 -12 -4 -9 -10 8 -12 3 -13 -29 0 -24 9 -26
7 -26 -15 0 -29 -13 -32 -32 -7 -7 9 -21 23 -31 31 -16 12 -18 12 -15 0z"/>
<path d="M1770 2878 c0 -5 -15 -22 -32 -38 l-33 -31 36 21 c20 11 44 29 54 40
16 18 16 19 -4 17 -12 -1 -21 -5 -21 -9z"/>
<path d="M2460 2856 c-5 -14 -15 -38 -20 -52 -9 -23 -9 -25 4 -15 17 14 41 79
32 88 -3 3 -10 -6 -16 -21z"/>
<path d="M1180 2853 c0 -5 10 -19 21 -33 l20 -25 -16 33 c-15 30 -25 41 -25
25z"/>
<path d="M2940 2848 l-25 -11 25 -6 c14 -4 27 -4 28 1 2 4 10 8 18 8 8 0 14 5
14 10 0 13 -28 12 -60 -2z"/>
<path d="M2413 2834 c-3 -8 -12 -13 -19 -10 -9 3 -14 -2 -14 -14 0 -21 8 -24
34 -14 9 3 13 10 10 15 -3 6 0 16 6 24 9 11 9 15 1 15 -6 0 -14 -7 -18 -16z"/>
<path d="M1152 2828 c3 -7 13 -15 22 -16 12 -3 17 1 14 10 -3 7 -13 15 -22 16
-12 3 -17 -1 -14 -10z"/>
<path d="M1642 2825 c1 -11 -1 -32 -5 -46 -5 -19 -3 -26 8 -26 17 0 21 53 5
77 -7 12 -9 11 -8 -5z"/>
<path d="M50 2823 c0 -6 -8 -14 -17 -16 -17 -4 -17 -5 0 -6 20 -1 23 -21 5
-39 -9 -9 -7 -12 10 -12 31 0 30 -37 0 -43 l-23 -4 23 -2 c13 0 21 -5 17 -10
-3 -5 4 -12 15 -16 27 -9 25 -24 -5 -35 -35 -13 -31 -26 10 -40 22 -7 35 -18
34 -28 0 -11 -2 -12 -6 -4 -2 6 -17 12 -31 12 -24 -1 -25 -2 -8 -11 14 -9 15
-13 6 -19 -11 -7 46 -7 60 0 3 1 8 2 13 1 12 -2 8 23 -7 44 -14 20 -16 26 -16
46 0 5 -4 8 -9 5 -5 -4 -7 2 -4 13 2 10 -5 40 -18 67 -12 27 -28 63 -35 79 -7
17 -13 25 -14 18z"/>
<path d="M1152 2740 c8 -25 28 -51 28 -37 0 15 -24 67 -30 67 -5 0 -4 -14 2
-30z"/>
<path d="M2373 2735 c0 -22 2 -30 4 -17 2 12 2 30 0 40 -3 9 -5 -1 -4 -23z"/>
<path d="M177 2746 c-3 -8 1 -20 9 -26 10 -9 14 -9 14 -1 0 6 -4 11 -10 11 -5
0 -7 7 -4 15 4 8 4 15 1 15 -3 0 -7 -6 -10 -14z"/>
<path d="M2435 2731 c-13 -27 -13 -30 0 -25 8 3 13 10 10 14 -3 5 2 13 11 18
11 6 13 12 6 16 -6 4 -18 -6 -27 -23z"/>
<path d="M2126 2735 c-24 -10 -26 -13 -10 -19 10 -4 24 -1 33 8 20 21 12 25
-23 11z"/>
<path d="M2173 2692 c0 -47 -3 -57 -20 -65 -22 -9 -39 -47 -22 -47 5 0 9 5 9
10 0 6 11 15 24 21 19 9 25 21 28 53 3 22 8 48 12 57 5 12 1 18 -13 22 -18 4
-19 0 -18 -51z"/>
<path d="M1350 2729 c0 -20 16 -43 23 -32 3 4 -1 17 -9 28 -10 13 -14 15 -14
4z"/>
<path d="M2292 2720 c-6 -11 -8 -21 -3 -25 5 -3 13 4 16 16 9 28 2 33 -13 9z"/>
<path d="M1674 2715 c11 -8 32 -15 48 -15 19 0 28 -5 28 -16 0 -11 -6 -14 -22
-9 -68 19 -64 19 -48 0 16 -19 23 -110 10 -134 -9 -17 -53 36 -46 56 3 7 1 13
-4 13 -6 0 -5 8 2 19 9 15 9 23 -2 36 -12 14 -12 18 1 26 8 5 9 9 3 9 -7 0
-22 -9 -35 -20 -15 -12 -19 -19 -10 -20 10 0 12 -10 8 -40 -3 -22 -2 -40 3
-40 4 0 15 -12 25 -26 13 -20 14 -28 4 -40 -9 -11 -7 -14 12 -14 13 0 70 -3
127 -7 75 -4 102 -2 102 6 0 8 8 10 19 6 11 -3 21 0 24 9 4 10 0 12 -15 8 -14
-3 -19 -1 -14 6 4 7 17 13 29 13 18 1 19 2 4 6 -15 4 -16 7 -5 21 7 9 -1 5
-18 -8 -17 -14 -29 -28 -27 -32 4 -8 -18 -11 -67 -10 -46 0 -51 2 -45 12 4 6
1 18 -6 26 -10 13 -10 17 0 24 8 4 10 13 6 20 -5 8 -11 7 -24 -4 -12 -11 -21
-12 -31 -5 -11 8 -12 12 -3 15 7 3 9 12 6 21 -4 10 0 14 13 12 30 -5 94 11 94
22 0 7 -12 8 -31 4 -19 -4 -29 -3 -26 2 4 5 -1 20 -10 32 -11 17 -22 21 -39
17 -12 -3 -26 -2 -29 4 -3 5 -12 10 -18 10 -7 0 -3 -7 7 -15z m71 -165 c11
-17 -5 -32 -21 -19 -8 6 -14 15 -14 20 0 12 27 11 35 -1z"/>
<path d="M0 2691 c0 -11 4 -21 9 -21 18 0 21 18 6 30 -13 10 -15 9 -15 -9z"/>
<path d="M1530 2675 c-73 -38 -117 -55 -142 -55 -13 0 -29 -9 -36 -20 -7 -12
-18 -18 -24 -14 -6 4 -9 3 -6 -2 7 -11 -17 -35 -26 -27 -3 4 -6 -1 -6 -10 0
-21 4 -21 36 -1 23 16 26 16 39 -2 8 -10 15 -14 15 -8 0 5 -5 15 -12 22 -9 9
-2 15 28 27 64 26 185 89 196 102 16 20 -10 15 -62 -12z"/>
<path d="M2391 2662 c-18 -26 -19 -32 -7 -32 9 0 16 6 16 14 0 8 5 16 12 18 6
2 9 10 6 18 -3 9 -12 3 -27 -18z"/>
<path d="M2237 2664 c6 -16 25 -14 30 2 2 5 -6 10 -16 11 -14 1 -18 -3 -14
-13z"/>
<path d="M2316 2663 c-3 -10 -9 -25 -12 -33 -4 -8 3 -3 15 12 23 28 26 38 12
38 -5 0 -11 -8 -15 -17z"/>
<path d="M1819 2633 c-9 -2 -21 -15 -27 -28 l-11 -24 32 19 c41 25 70 26 65 3
-2 -13 -11 -17 -32 -15 -16 2 -26 0 -22 -6 5 -8 53 -9 61 0 4 4 8 30 6 46 -1
12 -38 15 -72 5z"/>
<path d="M6 2621 c-3 -5 1 -12 10 -15 20 -8 29 -1 19 13 -8 13 -22 14 -29 2z"/>
<path d="M2025 2607 c-4 -10 -5 -21 -1 -24 10 -10 18 4 13 24 -4 17 -4 17 -12
0z"/>
<path d="M2100 2598 c0 -19 2 -20 10 -8 13 19 13 30 0 30 -5 0 -10 -10 -10
-22z"/>
<path d="M345 2574 c-38 -7 -101 -20 -140 -29 -38 -9 -77 -18 -85 -19 -9 -1
-20 -5 -25 -8 -6 -3 -29 -11 -52 -17 -26 -7 -43 -18 -43 -26 0 -20 19 -19 26
0 5 13 9 13 22 3 13 -11 14 -11 7 1 -6 11 -4 13 8 8 10 -4 17 -1 17 6 0 8 4 6
10 -3 8 -13 10 -12 10 3 0 23 13 22 35 -3 10 -11 25 -20 33 -20 12 0 11 3 -4
14 -10 8 -16 17 -12 21 3 4 16 -3 27 -14 12 -12 24 -21 28 -21 4 0 2 5 -5 12
-14 14 -16 52 -2 43 5 -3 35 1 66 9 42 11 63 12 77 4 14 -7 17 -7 13 1 -4 6 0
11 8 11 9 0 16 5 16 10 0 6 9 10 19 10 11 0 23 5 26 10 7 12 11 12 -80 -6z"/>
<path d="M2300 2568 c-40 -33 -105 -68 -163 -88 -173 -61 -525 -66 -737 -11
-67 18 -85 24 -95 32 -6 4 -38 -15 -75 -44 -36 -29 -80 -63 -98 -76 -29 -20
-32 -26 -26 -57 8 -43 0 -66 -21 -58 -10 4 -13 13 -9 26 3 11 2 23 -3 27 -5 3
-13 16 -18 29 l-10 23 -22 -21 -22 -20 -78 31 c-120 48 -214 77 -210 65 4 -14
59 -41 116 -57 24 -7 55 -22 69 -33 19 -15 39 -20 79 -19 29 0 56 -3 59 -8 3
-5 10 -7 15 -4 5 3 6 -1 3 -9 -6 -16 25 -48 51 -52 9 -1 18 8 21 22 3 13 10
24 15 24 5 0 7 11 3 24 -5 20 3 33 43 70 26 25 56 49 66 52 9 3 17 12 17 21 0
13 8 15 43 10 23 -3 51 -8 62 -10 91 -21 213 -40 280 -42 44 -2 101 -6 128
-10 31 -5 47 -4 47 3 0 6 20 10 48 10 68 -2 169 10 191 22 11 5 29 10 41 10
11 0 31 6 43 14 12 8 38 17 57 21 19 4 41 16 48 26 7 11 22 19 33 19 12 0 19
7 19 19 0 11 8 21 18 23 9 2 12 6 7 10 -6 3 -21 -3 -35 -14z"/>
<path d="M1 2563 c-1 -12 4 -25 9 -28 12 -7 12 2 0 30 -8 19 -9 19 -9 -2z"/>
<path d="M2086 2551 c-8 -12 20 -22 40 -14 13 5 13 7 2 14 -17 11 -35 11 -42
0z"/>
<path d="M1985 2543 c-26 -6 -44 -23 -24 -23 8 0 24 7 35 15 10 8 17 14 14 14
-3 -1 -14 -3 -25 -6z"/>
<path d="M2025 2510 c-4 -7 3 -8 22 -4 38 9 42 14 10 14 -14 0 -29 -5 -32 -10z"/>
<path d="M616 2471 c-3 -4 6 -13 19 -19 15 -7 25 -8 25 -2 0 13 -38 32 -44 21z"/>
<path d="M910 2438 c0 -13 5 -30 10 -38 7 -11 10 -7 10 17 0 17 -4 35 -10 38
-6 3 -10 -4 -10 -17z"/>
<path d="M1019 2439 c-3 -15 0 -34 6 -43 14 -18 30 -22 19 -4 -4 6 -10 25 -14
42 l-6 31 -5 -26z"/>
<path d="M155 2439 c5 -7 -18 -8 -74 -4 -55 4 -81 3 -81 -4 0 -6 11 -11 25
-11 14 0 25 -4 25 -8 0 -5 22 -8 49 -8 27 1 47 4 45 8 -6 9 33 21 45 14 5 -4
11 0 14 6 8 21 25 -35 23 -75 -1 -20 2 -37 6 -37 16 0 13 74 -4 108 -8 16 -20
22 -45 22 -22 0 -32 -4 -28 -11z"/>
<path d="M940 2388 c0 -9 7 -19 16 -22 25 -10 27 -1 4 19 -17 15 -20 16 -20 3z"/>
<path d="M38 2346 c-21 -5 -38 -13 -38 -17 0 -4 15 -3 32 2 51 14 68 11 78
-16 9 -24 30 -35 30 -15 0 5 7 7 15 4 8 -4 15 -1 15 5 0 6 -11 11 -25 11 -13
0 -28 6 -32 13 -12 20 -34 24 -75 13z"/>
<path d="M1873 2299 c33 -38 43 -55 34 -61 -7 -5 0 -8 18 -8 l29 0 -22 16
c-29 20 -28 34 2 34 14 0 28 5 31 11 4 6 14 8 24 4 12 -5 13 -3 4 6 -9 9 -19
9 -45 0 -30 -11 -36 -9 -77 20 l-44 31 46 -53z"/>
<path d="M2005 2340 c11 -5 27 -9 35 -9 9 0 8 4 -5 9 -11 5 -27 9 -35 9 -9 0
-8 -4 5 -9z"/>
<path d="M2185 2341 c3 -5 2 -11 -2 -14 -5 -2 -3 -2 4 -1 6 2 14 -2 17 -9 2
-7 5 -5 5 4 1 9 -6 20 -15 23 -8 3 -13 2 -9 -3z"/>
<path d="M2583 2333 c4 -3 22 -8 39 -10 24 -2 29 0 18 7 -17 11 -67 14 -57 3z"/>
<path d="M287 2295 c16 -35 37 -50 54 -39 5 3 9 11 8 17 0 9 -2 9 -6 0 -8 -22
-24 -14 -34 16 -6 16 -17 32 -24 35 -11 4 -11 -2 2 -29z"/>
<path d="M2500 2315 c-9 -10 -9 -15 -1 -15 6 0 11 5 11 11 0 8 4 8 14 0 10 -9
15 -8 20 4 7 20 -27 20 -44 0z"/>
<path d="M2038 2303 c-10 -2 -18 -9 -18 -14 0 -14 16 -11 30 6 7 8 11 14 9 14
-2 -1 -12 -3 -21 -6z"/>
<path d="M257 2286 c-5 -12 26 -76 37 -76 3 0 -2 20 -11 45 -16 49 -18 52 -26
31z"/>
<path d="M1627 2280 c-3 -11 -1 -20 4 -20 5 0 9 6 9 14 0 8 6 17 13 19 7 4 6
6 -4 6 -9 1 -19 -8 -22 -19z"/>
<path d="M202 2283 c20 -5 33 -33 15 -33 -7 0 -3 -6 8 -12 25 -14 39 -33 61
-76 8 -19 18 -32 20 -29 5 5 -48 112 -70 140 -7 9 -22 16 -32 16 -16 -1 -16
-2 -2 -6z"/>
<path d="M1459 2274 c-7 -24 9 -49 31 -50 8 0 23 -4 33 -9 21 -9 43 7 33 24
-9 14 -56 15 -56 1 0 -22 -29 4 -32 28 -3 24 -4 25 -9 6z"/>
<path d="M1578 2283 c-22 -5 -22 -13 -3 -39 13 -17 14 -17 15 -1 0 9 -6 17
-12 17 -7 1 -2 7 12 15 25 14 21 17 -12 8z"/>
<path d="M2237 2283 c-1 -1 -22 -4 -46 -7 -43 -5 -59 -12 -50 -21 3 -2 21 0
40 5 18 6 48 10 66 10 17 0 35 4 38 10 5 8 -40 11 -48 3z"/>
<path d="M2080 2266 c0 -9 7 -16 16 -16 17 0 14 22 -4 28 -7 2 -12 -3 -12 -12z"/>
<path d="M2002 2249 c-53 -11 -50 -20 4 -13 55 8 60 10 42 16 -7 3 -28 1 -46
-3z"/>
<path d="M111 2236 c-10 -11 -8 -16 7 -20 11 -4 23 -20 27 -39 l8 -32 4 28 c6
36 -29 84 -46 63z"/>
<path d="M442 2230 c-6 -10 -8 -21 -3 -24 5 -3 11 4 14 16 8 29 4 32 -11 8z"/>
<path d="M914 2236 c-10 -8 -16 -17 -13 -20 3 -3 14 3 24 14 21 23 17 26 -11
6z"/>
<path d="M1316 2234 c-9 -24 -7 -28 9 -14 8 7 22 9 31 6 14 -5 15 -4 4 9 -16
19 -36 19 -44 -1z"/>
<path d="M1660 2241 c0 -6 5 -13 11 -16 6 -5 4 -12 -8 -22 -17 -14 -17 -14 0
-9 10 3 23 6 28 6 17 0 9 25 -11 38 -11 7 -20 8 -20 3z"/>
<path d="M1250 2227 c0 -15 20 -37 32 -37 5 0 4 10 -3 21 -7 13 -7 19 -1 15 6
-3 13 -2 17 4 4 6 -5 10 -19 10 -15 0 -26 -6 -26 -13z"/>
<path d="M2454 2198 c3 -13 6 -26 6 -30 0 -5 5 -8 10 -8 17 0 11 47 -6 54 -13
5 -15 2 -10 -16z"/>
<path d="M1392 2195 c-4 -9 -21 -18 -37 -21 -33 -6 -41 -11 -32 -20 7 -8 116
15 147 31 l24 13 -29 -2 c-17 -1 -36 -5 -43 -10 -7 -4 -16 -5 -20 -1 -3 3 0
10 8 15 9 6 10 10 3 10 -7 0 -16 -7 -21 -15z"/>
<path d="M990 2192 c0 -4 9 -8 20 -9 11 -1 18 2 15 8 -7 11 -35 12 -35 1z"/>
<path d="M1120 2195 c0 -14 85 -85 96 -81 7 3 14 1 16 -3 2 -5 25 -2 51 6 26
7 45 18 42 23 -8 13 -52 13 -60 0 -3 -5 -20 -10 -37 -10 -17 0 -29 3 -25 6 3
4 0 11 -6 18 -16 14 -77 47 -77 41z"/>
<path d="M0 2170 c0 -11 4 -20 8 -20 4 0 8 9 9 20 1 11 -2 20 -8 20 -5 0 -9
-9 -9 -20z"/>
<path d="M2225 2182 c-11 -2 -24 -8 -30 -14 -9 -9 43 -1 54 8 8 7 -4 10 -24 6z"/>
<path d="M181 2158 c0 -10 -6 -18 -12 -18 -8 0 -8 -5 1 -15 7 -8 18 -15 26
-15 7 0 20 -10 28 -22 18 -25 21 -17 6 13 -6 10 -17 19 -25 19 -7 0 -16 12
-18 28 -2 15 -5 19 -6 10z"/>
<path d="M1461 2151 c-7 -5 -9 -11 -4 -14 5 -3 15 -2 22 2 7 5 9 11 4 14 -5 3
-15 2 -22 -2z"/>
<path d="M7 2110 c5 -18 20 -25 50 -21 6 1 14 -3 18 -9 3 -5 13 -10 21 -10 10
0 8 6 -7 21 -14 14 -29 19 -45 16 -16 -3 -24 0 -24 9 0 8 -4 14 -9 14 -5 0 -7
-9 -4 -20z"/>
<path d="M347 2114 c-3 -4 0 -13 8 -21 23 -22 19 -29 -26 -43 -31 -11 -45 -11
-59 -2 -16 10 -18 9 -14 -3 4 -10 0 -15 -15 -15 -12 0 -21 -4 -21 -10 0 -10
93 -2 97 9 2 3 20 5 40 5 39 -2 63 10 63 30 0 6 -4 4 -10 -4 -10 -16 -9 -17
-36 28 -11 18 -23 30 -27 26z"/>
<path d="M2460 2105 c-11 -13 -8 -15 16 -15 16 0 25 4 19 8 -5 4 -13 11 -16
15 -3 4 -12 1 -19 -8z"/>
<path d="M466 2085 c-11 -8 -15 -15 -9 -15 7 0 15 5 18 10 4 6 10 8 15 5 5 -3
11 -1 15 5 9 15 -17 12 -39 -5z"/>
<path d="M1550 2089 c0 -5 -4 -8 -9 -4 -5 3 -12 1 -15 -4 -3 -5 -15 -7 -27 -4
-12 4 -25 0 -30 -8 -7 -11 -12 -12 -29 -1 -25 15 -38 16 -22 0 16 -16 15 -25
-3 -25 -8 0 -12 4 -9 9 3 4 1 8 -5 8 -5 0 -12 -4 -15 -8 -3 -5 -30 -14 -61
-21 -34 -8 -55 -18 -55 -26 0 -10 -9 -12 -35 -8 -24 4 -35 2 -35 -7 0 -7 7
-10 16 -6 9 3 12 2 9 -5 -4 -6 -20 -7 -37 -4 -21 5 -28 4 -24 -4 5 -7 -2 -11
-16 -11 -18 0 -20 2 -8 10 30 19 0 9 -47 -16 -26 -14 -56 -23 -65 -20 -12 3
-18 -2 -18 -12 0 -12 -3 -13 -11 -5 -12 12 -42 6 -34 -7 8 -13 -64 -42 -87
-35 -14 5 -18 4 -14 -4 4 -6 0 -12 -11 -13 -10 0 -23 -2 -29 -2 -6 -1 -18 -7
-27 -14 -10 -9 -17 -10 -22 -2 -9 15 -35 12 -35 -3 0 -9 -10 -12 -30 -9 -22 3
-30 0 -30 -11 0 -10 -19 -19 -65 -28 -36 -7 -61 -17 -58 -22 4 -6 1 -7 -6 -3
-7 5 -33 5 -59 1 -35 -6 -42 -9 -28 -15 26 -9 10 -17 -38 -18 -21 -1 -43 -5
-50 -10 -6 -5 -40 -17 -76 -27 -36 -9 -69 -21 -75 -25 -5 -4 -21 -10 -35 -13
-26 -5 -106 -35 -160 -58 -20 -10 -30 -21 -30 -36 0 -22 1 -21 97 13 353 126
713 245 723 239 4 -3 13 2 20 10 16 19 30 19 30 0 0 -8 4 -15 10 -15 5 0 7 6
4 13 -5 13 44 43 53 33 3 -3 11 1 18 8 7 7 39 20 72 30 148 43 408 132 419
143 6 7 14 10 16 8 8 -8 111 30 116 43 2 6 -3 12 -12 12 -9 0 -16 -5 -16 -11z"/>
<path d="M1145 2080 c-3 -5 1 -10 9 -10 8 0 18 5 21 10 3 6 -1 10 -9 10 -8 0
-18 -4 -21 -10z"/>
<path d="M2346 2065 c4 -8 7 -15 9 -15 1 0 8 7 15 15 10 13 9 15 -8 15 -15 0
-20 -5 -16 -15z"/>
<path d="M1086 2055 c-23 -17 -40 -20 -31 -5 11 17 -4 11 -26 -11 l-22 -22 25
6 c34 9 98 36 98 42 0 10 -26 4 -44 -10z"/>
<path d="M1205 2060 c-3 -5 3 -10 15 -10 12 0 18 5 15 10 -3 6 -10 10 -15 10
-5 0 -12 -4 -15 -10z"/>
<path d="M140 2030 c14 -4 19 -8 13 -9 -7 -1 -13 -6 -13 -12 0 -7 7 -8 18 -4
9 4 23 8 30 8 6 0 12 4 12 8 0 8 -38 19 -65 18 -16 -1 -16 -2 5 -9z"/>
<path d="M756 2015 c-3 -9 0 -15 8 -15 7 0 13 7 13 15 0 8 -4 15 -8 15 -4 0
-9 -7 -13 -15z"/>
<path d="M960 2015 c-13 -16 -3 -20 24 -9 9 3 13 10 10 15 -8 13 -20 11 -34
-6z"/>
<path d="M38 2013 c-21 -2 -38 -9 -38 -14 0 -12 100 -1 115 12 9 9 -5 9 -77 2z"/>
<path d="M570 2012 c-21 -10 -23 -32 -3 -32 9 0 13 3 10 7 -4 3 -2 12 4 20 13
14 11 15 -11 5z"/>
<path d="M1644 2012 c2 -4 -2 -13 -10 -20 -8 -7 -14 -8 -14 -2 0 5 -5 10 -11
10 -5 0 -7 -5 -4 -10 4 -6 2 -16 -4 -23 -5 -7 -6 -18 -2 -25 5 -9 13 -5 29 13
12 14 33 25 46 25 14 0 28 4 31 10 3 6 -1 7 -9 4 -9 -3 -16 -2 -16 4 0 5 -9
12 -20 15 -11 3 -18 2 -16 -1z"/>
<path d="M175 1970 c-20 -9 -20 -9 0 -9 11 0 27 4 35 9 13 9 13 10 0 9 -8 0
-24 -4 -35 -9z"/>
<path d="M825 1961 c-33 -12 -45 -20 -36 -25 7 -5 16 -5 20 0 3 5 11 10 16 11
6 1 26 8 45 17 46 20 18 18 -45 -3z"/>
<path d="M730 1951 c0 -5 9 -11 19 -14 14 -3 18 -1 14 9 -6 15 -33 19 -33 5z"/>
<path d="M1526 1945 c4 -8 10 -12 15 -9 14 8 10 24 -6 24 -9 0 -12 -6 -9 -15z"/>
<path d="M1430 1932 c0 -5 14 -7 30 -4 17 2 30 6 30 8 0 2 -13 4 -30 4 -16 0
-30 -4 -30 -8z"/>
<path d="M1589 1918 c-8 -27 -5 -36 9 -31 14 5 15 3 5 -8 -15 -16 -17 -33 -3
-24 6 4 10 -5 10 -19 0 -14 5 -26 10 -26 13 0 13 39 -1 79 -9 25 -26 41 -30
29z"/>
<path d="M548 1893 c12 -2 30 -2 40 0 9 3 -1 5 -23 4 -22 0 -30 -2 -17 -4z"/>
<path d="M1337 1890 c-21 -4 -45 -14 -53 -22 -13 -13 -13 -16 0 -28 13 -10 16
-10 16 4 0 11 7 16 18 14 9 -2 16 3 15 10 -2 7 8 12 26 12 17 0 33 5 36 10 7
11 -2 11 -58 0z"/>
<path d="M597 1879 c-9 -6 -26 -8 -36 -4 -10 3 -24 -1 -31 -10 -7 -8 -26 -15
-42 -15 -17 0 -27 -4 -23 -10 3 -5 -2 -10 -11 -10 -10 0 -15 -3 -11 -6 9 -9
177 45 177 56 0 12 0 12 -23 -1z"/>
<path d="M1770 1880 c0 -5 5 -10 10 -10 6 0 10 -9 10 -20 0 -14 15 -27 49 -44
27 -14 63 -42 80 -63 17 -21 31 -32 31 -25 0 6 -9 21 -20 32 -11 11 -20 23
-20 28 0 4 -22 20 -50 35 -32 18 -52 37 -56 53 -6 23 -34 35 -34 14z"/>
<path d="M1199 1855 c-1 -5 -1 -13 0 -17 0 -5 -5 -8 -13 -8 -9 0 -12 -7 -9
-20 7 -25 23 -26 24 -2 0 15 1 15 8 -2 6 -16 9 -17 13 -5 3 8 0 26 -8 40 -7
13 -14 20 -15 14z"/>
<path d="M1089 1799 c-5 -9 -24 -20 -44 -23 -19 -4 -35 -11 -35 -16 0 -14 132
30 137 46 5 16 -49 10 -58 -7z"/>
<path d="M1752 1795 c6 -14 14 -25 17 -26 3 0 16 -2 29 -5 31 -5 28 11 -7 35
-40 29 -53 27 -39 -4z"/>
<path d="M2134 1788 c-4 -7 -3 -8 4 -4 7 4 12 1 12 -9 0 -9 4 -14 10 -10 10 6
2 35 -10 35 -5 0 -12 -5 -16 -12z"/>
<path d="M2940 1790 c-35 -7 -35 -7 -5 -9 17 0 37 4 45 9 17 11 11 11 -40 0z"/>
<path d="M285 1768 c-16 -5 -39 -14 -50 -19 -11 -5 -45 -15 -75 -23 -30 -8
-67 -19 -81 -24 -15 -6 -30 -8 -33 -5 -3 3 -8 -2 -12 -11 -3 -9 -10 -13 -15
-10 -5 3 -6 10 -3 16 4 7 2 8 -4 4 -7 -4 -12 -14 -12 -23 0 -16 22 -14 77 9
15 6 33 12 38 14 75 21 149 46 185 62 47 21 37 28 -15 10z"/>
<path d="M970 1744 l-25 -15 25 7 c28 7 35 12 29 18 -2 2 -15 -2 -29 -10z"/>
<path d="M2678 1752 c-16 -2 -28 -8 -28 -13 0 -7 -12 -8 -32 -3 -29 6 -31 5
-20 -9 12 -14 43 -13 67 3 6 3 20 5 33 4 12 0 22 2 22 7 0 4 12 10 28 12 20 3
18 4 -8 3 -19 0 -47 -2 -62 -4z"/>
<path d="M862 1721 c-18 -3 -31 -10 -30 -16 2 -5 -8 -10 -22 -11 -28 -1 -85
-22 -78 -29 8 -8 108 8 102 16 -3 5 6 9 19 9 14 0 35 9 48 20 26 21 20 22 -39
11z"/>
<path d="M2534 1723 c4 -4 19 -9 34 -10 21 -3 24 -1 12 7 -17 11 -57 14 -46 3z"/>
<path d="M2390 1704 c0 -5 -26 -10 -57 -11 -31 -2 -58 -5 -60 -7 -3 -2 1 -14
7 -26 9 -16 18 -20 35 -16 18 5 27 1 35 -15 15 -27 42 -54 64 -62 18 -7 -11
29 -67 83 l-28 27 63 -2 c164 -4 161 -3 155 -26 -4 -16 -3 -18 9 -8 17 14 10
27 -24 41 -50 20 -132 34 -132 22z"/>
<path d="M630 1685 c-54 -16 -137 -41 -365 -107 -93 -27 -185 -56 -203 -64
-18 -8 -39 -14 -47 -14 -9 0 -15 -10 -15 -25 0 -14 5 -25 11 -25 5 0 8 4 5 8
-3 5 11 16 30 25 42 21 69 22 34 2 -14 -8 -21 -14 -16 -15 23 -1 493 162 563
195 17 8 38 15 46 15 9 0 19 5 22 10 8 13 -9 11 -65 -5z"/>
<path d="M1584 1678 c0 -22 12 -24 20 -2 8 21 8 21 -7 21 -7 0 -13 -9 -13 -19z"/>
<path d="M1793 1666 c4 -11 -4 -14 -39 -14 -24 1 -44 5 -44 10 0 5 -5 6 -10 3
-8 -5 -8 -11 0 -20 12 -15 -3 -30 -20 -20 -5 3 -10 2 -10 -3 0 -5 -17 -14 -39
-20 -48 -15 -54 -15 -46 1 4 6 0 4 -8 -5 -8 -10 -22 -18 -31 -18 -9 0 -16 -5
-16 -11 0 -5 -5 -7 -10 -4 -6 4 -36 1 -68 -5 -31 -7 -67 -14 -80 -16 -13 -3
-20 -9 -16 -15 3 -6 18 -8 32 -5 15 2 50 7 77 11 l50 6 -32 -22 c-18 -11 -33
-27 -33 -35 0 -8 -5 -14 -11 -14 -5 0 -7 -4 -4 -10 3 -5 1 -10 -4 -10 -6 0
-11 7 -11 15 0 8 -5 15 -11 15 -6 0 -8 -9 -4 -20 5 -16 2 -20 -15 -20 -12 0
-19 -4 -16 -9 3 -5 15 -7 26 -4 22 6 26 -7 8 -25 -9 -9 -9 -12 0 -12 7 0 12
-4 12 -10 0 -5 -13 -7 -28 -4 -19 4 -32 1 -41 -10 -11 -13 -9 -16 13 -22 13
-3 29 -3 34 0 5 3 9 -1 9 -9 0 -8 -16 -16 -39 -20 -21 -4 -40 -10 -43 -15 -8
-13 6 -40 20 -40 15 0 73 -28 79 -39 3 -4 3 -17 -1 -29 -4 -18 -7 -19 -19 -7
-8 7 -14 17 -14 22 0 9 -53 43 -67 43 -4 0 7 -12 25 -26 43 -34 60 -70 68
-141 4 -32 9 -52 12 -45 2 6 8 9 14 6 6 -4 8 1 5 12 -11 37 -12 204 -2 206 6
2 12 -39 15 -102 5 -111 23 -162 69 -204 17 -16 15 -7 -12 45 -29 57 -33 71
-29 127 3 52 7 62 22 62 10 0 22 -9 25 -21 4 -12 12 -18 21 -15 16 6 67 -18
57 -27 -3 -4 4 -7 16 -7 12 0 38 -8 59 -19 36 -18 78 -28 164 -37 73 -9 160
-9 164 -2 2 4 19 4 38 1 21 -3 36 -1 41 7 5 9 -14 10 -81 5 -58 -5 -110 -3
-149 5 -33 7 -70 13 -82 12 -13 0 -23 4 -23 10 0 5 -5 6 -10 3 -6 -4 -17 -1
-25 5 -8 7 -15 10 -15 7 0 -11 -65 16 -96 40 -17 12 -34 23 -39 23 -13 0 -79
62 -108 103 -21 29 -32 36 -40 28 -6 -6 -15 -11 -19 -11 -4 0 1 9 12 20 13 13
20 33 20 60 0 114 135 213 342 251 37 7 65 16 62 21 -3 4 -10 6 -15 3 -5 -4
-9 -2 -9 3 0 6 -7 13 -16 16 -11 4 -15 2 -11 -8z"/>
<path d="M1964 1671 c-5 -5 -18 -11 -29 -14 -15 -4 -13 -5 8 -6 15 -1 27 4 27
12 0 6 5 4 11 -5 7 -12 22 -18 49 -18 52 0 178 -25 225 -44 47 -20 50 -20 31
-1 -8 9 -29 21 -46 26 -16 6 -28 14 -25 19 2 4 -7 5 -22 2 -20 -4 -25 -2 -20
10 4 13 -8 15 -85 12 -50 -2 -96 1 -103 6 -7 5 -15 6 -21 1z"/>
<path d="M2210 1670 c20 -13 40 -13 40 0 0 6 -12 10 -27 10 -22 0 -25 -2 -13
-10z"/>
<path d="M1860 1650 c0 -5 9 -10 19 -10 11 0 23 5 26 10 4 6 -5 10 -19 10 -14
0 -26 -4 -26 -10z"/>
<path d="M660 1640 c-8 -5 -18 -6 -22 -4 -4 3 -16 0 -25 -6 -14 -9 -7 -10 32
-5 28 4 53 10 57 14 11 10 -26 11 -42 1z"/>
<path d="M2694 1631 c22 -25 48 -29 39 -6 -3 9 -8 14 -11 11 -2 -3 -14 0 -26
6 -21 11 -21 11 -2 -11z"/>
<path d="M2620 1630 c0 -10 15 -25 38 -38 34 -19 38 -8 6 13 -21 13 -24 19
-13 26 10 6 7 8 -9 6 -12 0 -22 -4 -22 -7z"/>
<path d="M612 1604 c-6 -3 -9 -10 -6 -16 4 -7 9 -6 14 2 6 9 12 9 28 -1 18
-11 43 -7 31 5 -8 8 -54 15 -67 10z"/>
<path d="M2490 1600 c0 -4 7 -11 16 -14 11 -4 14 -13 10 -31 -4 -15 -2 -25 4
-25 6 0 9 4 5 9 -3 5 -1 12 5 16 20 12 10 43 -15 47 -14 3 -25 2 -25 -2z"/>
<path d="M525 1590 c-15 -6 -9 -8 22 -8 24 0 40 4 37 9 -6 11 -32 11 -59 -1z"/>
<path d="M2313 1588 c1 -7 25 -28 52 -46 71 -48 94 -71 121 -122 l23 -45 1 37
c0 20 -6 39 -12 41 -8 3 -6 6 5 6 11 1 17 9 17 27 0 19 -4 24 -17 21 -10 -2
-33 7 -51 20 -18 14 -47 26 -65 29 -18 2 -39 13 -49 24 -18 23 -29 26 -25 8z
m181 -97 c11 -4 15 -10 9 -14 -5 -3 -19 0 -29 8 -20 15 -11 18 20 6z"/>
<path d="M2595 1590 c4 -6 2 -17 -4 -24 -8 -10 -7 -17 6 -27 13 -11 17 -11 20
-1 3 6 9 10 14 7 5 -3 1 8 -9 24 -9 17 -21 31 -25 31 -5 0 -5 -5 -2 -10z"/>
<path d="M765 1540 c-7 -12 2 -12 30 0 19 8 19 9 -2 9 -12 1 -25 -3 -28 -9z"/>
<path d="M1320 1531 c0 -12 29 -35 36 -28 4 3 -1 13 -9 22 -17 17 -27 19 -27
6z"/>
<path d="M2647 1533 c-4 -6 2 -18 13 -28 23 -21 27 -8 7 20 -8 11 -16 14 -20
8z"/>
<path d="M1200 1518 c-71 -10 -75 -12 -65 -28 6 -9 9 -9 15 0 6 10 24 11 80 3
39 -5 73 -6 76 -1 3 4 0 8 -5 8 -6 0 -11 7 -11 15 0 16 2 16 -90 3z"/>
<path d="M290 1504 c-10 -11 -10 -14 1 -14 8 0 20 4 27 9 11 7 11 9 -1 14 -9
3 -21 -1 -27 -9z"/>
<path d="M580 1511 c0 -5 -8 -12 -17 -14 -15 -4 -15 -5 -2 -6 9 0 22 6 29 14
9 10 9 15 1 15 -6 0 -11 -4 -11 -9z"/>
<path d="M1090 1485 c12 -15 30 -12 30 6 0 5 -10 9 -21 9 -18 0 -19 -2 -9 -15z"/>
<path d="M2573 1481 c0 -10 7 -17 13 -14 7 3 10 11 7 19 -8 20 -22 17 -20 -5z"/>
<path d="M988 1478 c-5 -12 1 -15 25 -14 34 1 51 26 17 26 -12 0 -18 -4 -15
-10 3 -5 2 -10 -4 -10 -5 0 -11 5 -13 12 -3 8 -6 7 -10 -4z"/>
<path d="M1875 1470 c-7 -12 -11 -30 -17 -85 -3 -22 -3 -32 -1 -22 3 9 8 15
13 12 5 -3 12 0 16 6 3 6 1 15 -6 19 -10 6 -8 15 9 38 11 17 21 33 21 36 0 10
-28 7 -35 -4z"/>
<path d="M1920 1438 l1 -43 14 34 c15 33 13 51 -6 51 -5 0 -9 -19 -9 -42z"/>
<path d="M1960 1472 c0 -6 -3 -17 -6 -26 -3 -9 -1 -16 6 -16 6 0 8 5 5 10 -13
22 120 4 199 -26 22 -9 54 -25 70 -37 17 -12 36 -21 43 -19 6 1 21 -15 34 -35
13 -21 25 -40 28 -43 16 -14 -5 -64 -27 -65 -22 -2 -52 -18 -52 -28 0 -8 -3
-8 -11 0 -8 8 -20 8 -34 3 -13 -5 -26 -6 -29 -3 -3 4 -6 -4 -6 -16 0 -20 -2
-21 -27 -7 -24 12 -29 12 -40 -3 -10 -13 -14 -14 -22 -2 -5 8 -14 10 -21 6 -8
-5 -18 -1 -26 10 -18 25 -29 13 -14 -15 19 -36 3 -35 -19 1 -15 24 -21 29 -21
15 0 -11 -5 -16 -14 -13 -7 3 -19 0 -25 -6 -8 -8 -16 -6 -31 8 -20 18 -20 18
-21 -6 l0 -24 -11 23 c-6 12 -16 22 -22 21 -43 -5 -66 2 -66 21 0 11 -4 20 -9
20 -6 0 -7 16 -4 37 5 27 3 34 -6 28 -8 -4 -11 -21 -9 -42 4 -30 1 -36 -21
-44 -14 -6 -27 -6 -30 -1 -3 5 -19 16 -36 25 -19 10 -24 16 -13 17 9 0 19 4
23 9 3 6 -6 6 -25 1 -29 -8 -32 -7 -45 23 -12 28 -11 35 6 59 11 15 25 30 31
34 7 4 6 9 -3 15 -9 6 -2 7 17 3 30 -6 31 -4 27 20 -6 30 -7 30 -36 14 -30
-15 -67 -56 -67 -74 0 -7 -4 -14 -9 -14 -5 0 -11 -16 -13 -35 -5 -42 12 -60
89 -99 104 -52 195 -70 348 -70 158 1 214 14 328 78 73 40 117 86 117 121 0
42 -17 36 -24 -7 -5 -32 -9 -39 -16 -28 -7 10 -10 11 -10 3 0 -18 -32 -53 -42
-47 -4 3 -8 16 -8 30 0 41 -122 158 -144 137 -3 -4 -6 -1 -6 5 0 6 -30 21 -67
32 -82 25 -183 38 -183 22z"/>
<path d="M1756 1457 c-52 -16 -61 -38 -12 -30 25 4 36 2 36 -7 0 -9 4 -9 17 1
15 13 16 11 10 -12 -5 -18 -2 -31 8 -39 12 -10 14 -4 13 44 -2 62 -4 63 -72
43z"/>
<path d="M1223 1445 c0 -9 4 -14 9 -13 5 2 10 8 10 13 0 5 -5 11 -10 13 -5 1
-9 -4 -9 -13z"/>
<path d="M1293 1426 c4 -34 -5 -47 -18 -26 -3 6 -12 10 -18 9 -7 0 -2 -7 11
-16 l23 -16 -32 -14 c-18 -7 -29 -16 -25 -20 3 -3 -1 -15 -10 -24 -16 -17 -15
-19 10 -29 34 -12 66 -13 66 -1 0 5 -13 20 -30 34 l-29 25 35 6 c19 4 38 5 43
2 5 -3 11 1 15 9 3 9 0 15 -8 15 -8 0 -17 7 -20 16 -8 22 -8 26 4 19 6 -4 9 3
7 16 -6 40 -28 35 -24 -5z"/>
<path d="M2550 1441 c0 -5 11 -16 25 -25 29 -19 34 -7 7 17 -21 19 -32 22 -32
8z"/>
<path d="M58 1427 c-30 -12 -35 -22 -16 -33 6 -4 8 -3 5 3 -7 11 20 26 32 18
4 -2 8 2 8 10 0 8 -1 15 -1 14 -1 -1 -13 -6 -28 -12z"/>
<path d="M638 1428 c-9 -5 -6 -8 9 -8 12 0 24 4 27 8 7 11 -19 11 -36 0z"/>
<path d="M570 1411 c0 -4 11 -6 25 -3 14 2 25 6 25 8 0 2 -11 4 -25 4 -14 0
-25 -4 -25 -9z"/>
<path d="M2527 1373 c-9 -16 -12 -34 -9 -41 11 -16 36 3 29 21 -3 9 -2 17 3
19 5 2 6 9 1 17 -7 11 -12 7 -24 -16z"/>
<path d="M350 1380 c-32 -7 -25 -14 10 -11 8 1 20 -9 25 -21 6 -12 17 -23 25
-25 10 -3 9 -1 -2 7 -21 13 -24 46 -5 53 18 8 -11 6 -53 -3z"/>
<path d="M1741 1376 c-10 -12 -8 -13 8 -9 12 3 21 9 21 14 0 14 -16 11 -29 -5z"/>
<path d="M2629 1366 c29 -31 35 -33 22 -7 -6 10 -18 22 -28 25 -13 5 -11 1 6
-18z"/>
<path d="M212 1361 l-24 -6 30 -34 c20 -23 35 -32 46 -28 10 4 15 3 11 -3 -3
-6 -1 -10 4 -10 6 0 11 3 11 8 0 15 -16 28 -35 27 -23 0 -33 34 -13 46 15 10
4 10 -30 0z"/>
<path d="M1088 1363 c-16 -4 -16 -6 -4 -19 17 -16 36 -19 36 -4 0 6 -6 10 -12
10 -9 0 -8 4 2 10 15 10 8 11 -22 3z"/>
<path d="M2966 1354 c-9 -8 -16 -12 -16 -8 0 3 -7 1 -15 -6 -8 -6 -19 -9 -25
-5 -5 3 -10 -1 -10 -9 0 -15 -23 -21 -60 -17 -9 2 -7 -3 7 -13 20 -15 25 -14
70 8 66 34 88 51 75 60 -6 3 -18 -1 -26 -10z"/>
<path d="M160 1345 c-7 -9 -19 -14 -26 -11 -7 3 -25 -6 -41 -20 -15 -13 -36
-24 -45 -24 -10 0 -18 -5 -18 -11 0 -5 5 -7 10 -4 6 3 10 1 10 -4 0 -6 22 2
48 19 34 21 55 27 72 23 22 -6 23 -5 12 10 -8 9 -11 21 -7 27 10 15 -1 12 -15
-5z"/>
<path d="M858 1352 c7 -5 10 -16 6 -25 -3 -10 -1 -17 6 -17 17 0 8 43 -10 47
-11 4 -12 2 -2 -5z"/>
<path d="M1126 1313 c-7 -17 9 -33 32 -33 10 0 10 -4 -2 -16 -9 -8 -16 -19
-16 -24 0 -4 -29 -13 -65 -20 -79 -15 -80 -24 -2 -12 31 5 55 6 54 3 -3 -14
15 -81 22 -81 4 0 5 17 1 38 -5 26 -1 48 12 75 16 33 17 38 3 43 -8 3 -15 12
-15 19 0 21 -17 27 -24 8z"/>
<path d="M1800 1311 c0 -11 5 -23 10 -26 6 -3 10 3 10 14 0 11 -4 23 -10 26
-5 3 -10 -3 -10 -14z"/>
<path d="M2756 1321 c-4 -6 4 -15 16 -22 13 -6 31 -20 41 -30 9 -10 24 -16 32
-13 23 9 18 24 -10 24 -13 0 -28 6 -32 13 -15 23 -41 38 -47 28z"/>
<path d="M1480 1312 c0 -12 62 -84 68 -78 2 3 -12 24 -32 46 -20 22 -36 37
-36 32z"/>
<path d="M400 1301 c0 -4 11 -6 25 -3 14 2 25 6 25 8 0 2 -11 4 -25 4 -14 0
-25 -4 -25 -9z"/>
<path d="M2540 1296 c0 -8 7 -17 16 -20 29 -11 34 -6 14 14 -24 24 -30 25 -30
6z"/>
<path d="M573 1274 c10 -11 57 -13 57 -3 0 5 -14 9 -32 9 -17 0 -28 -3 -25 -6z"/>
<path d="M1822 1264 c-17 -18 -15 -24 8 -24 11 0 20 5 20 10 0 6 9 10 20 10
11 0 20 -7 20 -15 0 -8 5 -15 10 -15 12 0 13 20 2 35 -11 15 -65 14 -80 -1z"/>
<path d="M2530 1261 c0 -4 11 -24 24 -44 13 -19 27 -44 31 -56 9 -28 20 -27
89 12 63 35 81 57 47 57 -12 0 -21 -4 -21 -10 0 -5 -11 -10 -25 -10 -16 0 -25
-6 -25 -15 0 -19 -38 -19 -62 -1 -30 22 -22 38 15 31 25 -6 29 -4 20 5 -6 7
-23 13 -38 13 -15 0 -29 6 -32 13 -6 15 -23 19 -23 5z"/>
<path d="M2740 1260 c-6 -4 -4 -14 4 -25 12 -16 18 -17 39 -8 31 14 40 7 26
-20 -8 -14 -8 -18 0 -13 6 4 11 2 11 -4 0 -6 19 -29 43 -52 23 -22 34 -38 25
-34 -29 9 -21 -3 10 -16 39 -16 44 -16 76 -3 22 9 25 13 12 18 -9 4 -16 2 -16
-4 0 -10 -76 26 -97 46 -7 8 -13 21 -13 30 0 9 -9 19 -21 22 -11 3 -18 11 -16
17 12 31 -51 66 -83 46z"/>
<path d="M186 1238 c8 -28 12 -33 20 -25 9 8 -6 47 -17 47 -6 0 -7 -10 -3 -22z"/>
<path d="M415 1251 c-3 -6 3 -10 12 -10 10 1 27 -1 38 -4 11 -2 13 -2 5 1 -12
4 -11 6 5 13 16 6 12 8 -17 8 -20 1 -39 -3 -43 -8z"/>
<path d="M2876 1251 c-6 -10 31 -45 57 -54 10 -4 16 -11 13 -15 -3 -5 8 -22
24 -37 17 -16 30 -25 30 -20 0 4 -8 14 -17 22 -17 14 -17 14 0 9 12 -4 17 0
17 13 0 21 -30 51 -51 51 -8 0 -20 9 -27 20 -13 21 -37 27 -46 11z m97 -82
c-8 -8 -13 -8 -17 0 -4 6 -2 11 4 11 6 0 8 6 4 13 -6 10 -4 10 7 0 9 -10 10
-16 2 -24z"/>
<path d="M237 1236 c-5 -12 0 -16 23 -16 16 0 31 4 34 9 4 5 -3 7 -15 4 -12
-3 -24 0 -29 6 -5 10 -9 9 -13 -3z"/>
<path d="M2507 1181 c-6 -55 -4 -77 5 -82 7 -4 17 -4 24 1 6 6 13 8 15 5 3 -2
10 5 17 15 9 15 9 19 0 18 -13 -3 -38 42 -48 87 -5 23 -8 13 -13 -44z"/>
<path d="M20 1221 c0 -12 6 -21 15 -21 8 0 15 3 15 6 0 3 -7 12 -15 20 -13 14
-15 13 -15 -5z"/>
<path d="M313 1233 c4 -3 2 -12 -4 -19 -8 -9 -5 -11 10 -7 20 5 19 33 -2 33
-6 0 -7 -3 -4 -7z"/>
<path d="M1184 1194 c3 -26 14 -59 24 -73 9 -14 17 -33 17 -41 0 -9 8 -14 18
-12 13 2 17 -4 17 -26 0 -30 3 -33 75 -77 l30 -19 -32 35 c-18 19 -33 42 -33
51 0 9 -14 26 -30 38 -39 28 -53 54 -60 114 -3 30 -11 51 -19 54 -11 4 -13 -5
-7 -44z"/>
<path d="M1260 1230 c-12 -7 -12 -13 -1 -37 l14 -28 8 30 c10 33 1 48 -21 35z"/>
<path d="M1301 1199 c-14 -40 -5 -53 22 -34 24 17 37 19 37 6 0 -5 -14 -14
-31 -21 -27 -12 -29 -15 -15 -28 12 -13 20 -13 45 -2 17 7 31 17 31 22 0 16
-40 67 -60 78 -15 8 -20 5 -29 -21z"/>
<path d="M245 1200 c-8 -13 -1 -24 14 -19 6 3 7 10 2 18 -6 10 -10 10 -16 1z"/>
<path d="M2870 1199 c0 -9 9 -24 20 -34 26 -23 26 -4 0 26 -15 18 -19 20 -20
8z"/>
<path d="M347 1180 c6 -23 33 -48 33 -31 0 6 9 11 20 11 11 0 20 5 20 12 0 6
-3 8 -7 5 -3 -4 -13 -1 -21 6 -13 9 -14 9 -8 0 4 -7 2 -13 -3 -13 -6 0 -11 4
-11 9 0 5 -6 11 -14 14 -10 4 -12 0 -9 -13z"/>
<path d="M64 1159 c3 -17 6 -43 7 -58 1 -25 1 -25 7 -3 12 40 27 25 39 -40 7
-35 17 -83 23 -108 5 -25 13 -65 16 -90 4 -25 10 -52 15 -61 4 -9 7 -26 4 -37
-3 -20 23 -103 38 -118 10 -11 9 20 -2 32 -11 12 -22 86 -11 79 4 -3 10 1 13
7 5 18 -4 48 -15 48 -5 0 -6 -4 -3 -10 3 -5 2 -10 -4 -10 -6 0 -13 17 -17 38
-3 20 -12 69 -20 107 -7 39 -16 94 -20 122 -4 35 -15 62 -30 79 -14 14 -22 29
-19 34 3 4 -2 11 -11 14 -14 5 -16 1 -10 -25z"/>
<path d="M2394 1172 c-23 -21 -95 -48 -189 -73 -39 -10 -59 -18 -45 -19 21 -1
18 -4 -15 -15 -39 -13 -39 -14 -7 -10 18 2 44 10 56 19 13 8 33 12 45 9 13 -3
30 2 43 13 12 11 18 13 14 6 -5 -9 1 -12 26 -10 31 3 33 1 38 -32 l6 -35 6 32
c4 17 5 41 3 52 -2 12 0 19 5 16 9 -6 45 53 38 61 -3 2 -13 -4 -24 -14z"/>
<path d="M29 1113 c-2 -24 -1 -43 4 -43 5 0 6 -11 3 -25 -4 -14 -2 -25 3 -25
6 0 8 -7 5 -15 -4 -8 -1 -15 4 -15 10 0 12 -9 13 -72 0 -14 6 -29 14 -32 8 -3
15 -12 15 -21 0 -8 4 -15 9 -15 6 0 4 15 -4 34 -15 36 -43 152 -54 226 l-7 45
-5 -42z"/>
<path d="M625 1140 l-30 -8 33 -1 c17 0 32 4 32 9 0 6 -1 9 -2 9 -2 -1 -16 -5
-33 -9z"/>
<path d="M156 1126 c3 -9 11 -16 16 -16 13 0 5 23 -10 28 -7 2 -10 -2 -6 -12z"/>
<path d="M828 1125 c15 -11 27 -14 33 -8 6 6 5 10 -3 10 -7 0 -22 4 -33 8 -16
6 -16 4 3 -10z"/>
<path d="M370 1111 c0 -4 11 -6 25 -3 14 2 25 6 25 8 0 2 -11 4 -25 4 -14 0
-25 -4 -25 -9z"/>
<path d="M2739 1107 c6 -8 7 -18 3 -22 -4 -5 -2 -5 4 -2 13 8 90 -51 86 -65
-1 -5 2 -7 7 -4 5 4 12 2 16 -4 3 -5 12 -10 18 -10 7 0 6 4 -3 10 -8 5 -11 10
-6 10 5 0 -13 17 -40 37 -27 20 -53 43 -57 50 -4 7 -15 13 -24 13 -12 0 -13
-3 -4 -13z"/>
<path d="M1160 1090 c-13 -8 -11 -11 8 -16 12 -4 22 -9 22 -13 -1 -13 -27 -40
-33 -34 -4 3 -7 -1 -7 -10 0 -8 -9 -19 -21 -22 -11 -4 -18 -13 -15 -20 3 -8
-5 -16 -19 -19 -17 -4 -22 -11 -18 -22 3 -9 0 -20 -8 -25 -8 -4 -14 -14 -15
-21 -3 -34 -5 -38 -21 -39 -10 0 -13 -3 -6 -5 7 -3 9 -19 5 -47 -4 -23 -7 -82
-7 -132 l0 -90 49 -75 c27 -41 54 -80 60 -85 6 -6 16 -19 22 -30 6 -10 17 -21
25 -24 12 -4 12 -2 0 13 -8 9 -12 18 -10 20 2 1 17 -13 34 -33 19 -23 21 -29
7 -17 -12 11 -22 16 -22 11 0 -8 38 -40 84 -70 18 -12 27 -14 21 -6 -6 11 -4
13 9 8 10 -4 15 -3 11 3 -3 6 -17 10 -30 10 -17 0 -29 9 -40 30 -8 16 -15 31
-15 35 0 11 47 4 68 -10 20 -14 21 -14 16 0 -10 26 20 17 46 -15 21 -26 50
-40 50 -25 0 25 -109 85 -155 85 -11 0 -32 7 -47 14 -16 8 -28 11 -28 6 0 -18
-51 42 -65 77 -25 60 -22 63 40 48 30 -7 71 -25 92 -41 21 -16 44 -29 51 -30
25 -4 43 -26 32 -39 -8 -10 -3 -15 22 -20 18 -4 44 -14 56 -22 30 -18 39 -11
20 16 -8 12 -17 18 -21 15 -3 -3 -35 18 -72 46 -68 54 -77 68 -31 51 18 -8 26
-7 26 0 0 7 11 9 25 7 14 -3 25 -1 25 3 0 5 7 6 15 3 10 -4 15 0 15 12 0 17 1
16 16 -2 15 -18 15 -18 11 4 -5 19 -2 22 16 20 19 -3 22 2 22 32 0 24 -5 35
-15 35 -26 0 -37 18 -33 55 2 26 1 31 -7 20 -8 -12 -10 -10 -10 9 0 19 -2 21
-15 11 -13 -11 -13 -16 0 -47 8 -20 27 -47 43 -60 32 -28 26 -34 -52 -58 -58
-17 -127 -18 -246 -2 l-85 12 -9 58 c-20 122 28 254 131 358 l45 47 -23 31
c-12 17 -23 31 -23 31 -1 0 -8 -5 -16 -10z"/>
<path d="M1364 1085 c10 -8 24 -11 29 -8 6 4 2 10 -9 14 -31 12 -40 9 -20 -6z"/>
<path d="M280 1082 c0 -19 19 -52 30 -52 15 0 12 12 -10 40 -11 14 -20 19 -20
12z"/>
<path d="M2490 1077 c0 -8 -11 -54 -25 -102 -14 -48 -24 -90 -21 -92 2 -2 19
34 36 81 24 63 37 86 50 86 34 0 220 -157 220 -186 0 -4 11 -22 26 -41 14 -18
31 -48 39 -66 19 -47 47 -217 37 -231 -5 -6 -15 -31 -22 -56 -19 -61 -53 -114
-108 -168 -42 -41 -120 -97 -132 -96 -3 0 -15 -10 -27 -23 -12 -12 -20 -23
-17 -23 9 0 68 42 76 55 4 5 8 7 8 2 0 -9 45 20 79 51 27 25 42 22 20 -4 -34
-41 -159 -116 -264 -158 -63 -25 -120 -46 -126 -46 -6 0 -21 -8 -34 -18 -22
-18 -22 -19 -4 -30 25 -16 28 -15 22 7 -4 16 7 23 64 41 37 13 96 36 130 51
36 16 65 24 68 18 8 -12 25 -12 25 2 0 5 -4 7 -10 4 -5 -3 -10 -2 -10 3 0 5
21 23 48 40 64 41 112 90 112 114 0 10 4 17 8 14 11 -7 71 87 99 154 12 30 23
74 23 98 0 67 -29 181 -63 247 -41 79 -163 200 -247 245 -84 45 -80 44 -80 27z"/>
<path d="M925 1070 c3 -5 16 -10 28 -9 21 0 21 1 2 9 -28 12 -37 12 -30 0z"/>
<path d="M2398 1056 c-10 -7 -20 -28 -22 -47 -3 -19 -6 -35 -7 -36 -1 -2 -2
-6 -4 -10 -1 -5 -7 -21 -14 -37 -6 -16 -10 -30 -8 -33 7 -6 57 113 57 134 0
10 5 24 12 31 16 16 7 15 -14 -2z"/>
<path d="M2953 1055 c0 -9 6 -14 13 -11 8 3 16 0 20 -6 4 -7 3 -8 -4 -4 -16
10 -14 -5 3 -28 14 -19 15 -19 13 10 -1 16 -6 35 -11 42 -13 17 -34 15 -34 -3z"/>
<path d="M810 1055 c0 -2 9 -9 20 -15 16 -9 20 -8 20 5 0 8 -9 15 -20 15 -11
0 -20 -2 -20 -5z"/>
<path d="M2697 1054 c-3 -4 4 -15 16 -25 12 -10 18 -18 13 -19 -5 0 1 -9 14
-20 13 -11 30 -19 39 -19 13 1 13 2 -1 6 -10 2 -18 8 -18 12 0 13 -56 71 -63
65z"/>
<path d="M1368 1037 c-34 -13 -35 -22 -3 -43 14 -9 22 -20 19 -25 -3 -5 -1 -9
4 -9 15 0 21 25 11 41 -5 8 -6 22 -3 32 3 9 4 17 2 16 -2 -1 -15 -6 -30 -12z"/>
<path d="M686 1031 c-2 -3 12 -7 31 -8 19 -1 32 1 29 5 -9 8 -56 11 -60 3z"/>
<path d="M1458 970 c-4 -64 -3 -66 34 -105 21 -23 38 -48 38 -58 0 -9 5 -17
10 -17 6 0 10 -9 10 -20 0 -20 25 -38 36 -27 3 3 -12 32 -34 64 -55 82 -62 97
-76 166 l-13 62 -5 -65z"/>
<path d="M2683 995 c21 -21 40 -35 43 -33 3 3 -6 15 -20 26 -14 10 -22 23 -18
28 4 5 3 6 -2 2 -5 -4 -16 -3 -25 4 -9 6 1 -5 22 -27z"/>
<path d="M2794 993 c11 -13 17 -23 13 -23 -3 0 4 -11 17 -25 31 -33 49 -34 34
0 -6 13 -15 22 -19 19 -5 -3 -21 8 -36 24 -16 15 -19 18 -9 5z"/>
<path d="M923 1003 c-28 -5 -30 -19 -3 -19 11 0 22 6 24 13 3 7 4 12 3 12 -1
-1 -12 -4 -24 -6z"/>
<path d="M238 983 c6 -2 12 -11 12 -19 0 -16 16 -19 25 -4 3 6 1 10 -5 10 -6
0 -8 5 -5 10 3 6 -4 10 -17 9 -13 0 -17 -3 -10 -6z"/>
<path d="M2865 968 c3 -12 8 -24 13 -27 5 -3 12 -18 15 -33 5 -19 16 -28 39
-34 18 -4 39 -7 46 -5 6 1 12 -4 12 -10 0 -7 3 -9 7 -6 3 4 -2 17 -13 29 -19
21 -19 21 0 14 15 -5 17 -4 7 8 -6 8 -21 12 -32 9 -15 -4 -17 -8 -8 -19 12
-14 -2 -20 -15 -6 -4 4 -12 7 -18 7 -6 0 -12 8 -14 18 -1 10 -10 27 -20 38
-19 21 -6 27 15 7 10 -11 12 -10 9 2 -7 34 -49 42 -43 8z"/>
<path d="M2927 962 c7 -19 23 -32 38 -32 6 1 2 7 -7 14 -10 7 -15 15 -12 18 2
3 -2 8 -10 11 -11 4 -13 1 -9 -11z"/>
<path d="M335 916 c6 -64 18 -96 29 -77 4 6 4 17 -1 24 -4 6 -9 21 -10 32 -2
11 -8 34 -13 50 -8 24 -9 19 -5 -29z"/>
<path d="M1405 951 l-30 -7 31 -17 c32 -16 32 -16 30 8 0 14 -1 24 -1 24 0 -1
-13 -4 -30 -8z"/>
<path d="M30 914 c0 -14 4 -23 9 -20 5 3 7 15 4 26 -7 28 -13 25 -13 -6z"/>
<path d="M183 870 c9 -48 16 -58 21 -28 1 7 5 19 10 26 5 8 3 11 -6 10 -7 -2
-14 7 -16 20 -2 12 -7 22 -11 22 -5 0 -4 -23 2 -50z"/>
<path d="M1377 890 c-10 -38 -8 -148 3 -155 6 -3 10 0 10 7 1 7 4 31 9 53 4
25 3 56 -4 80 -10 38 -11 38 -18 15z"/>
<path d="M2836 898 c6 -9 44 -6 44 3 0 4 -11 6 -24 5 -13 0 -22 -4 -20 -8z"/>
<path d="M770 890 c-8 -5 -12 -11 -9 -14 3 -3 14 1 25 9 21 16 8 20 -16 5z"/>
<path d="M1586 860 c4 -24 12 -62 19 -85 13 -38 13 -39 14 -10 1 17 -8 55 -19
85 l-21 55 7 -45z"/>
<path d="M1430 870 c0 -5 11 -17 25 -26 14 -9 23 -19 21 -23 -2 -3 8 -7 22 -8
25 -1 24 0 -14 33 -41 35 -54 41 -54 24z"/>
<path d="M320 842 c0 -4 11 -23 23 -42 22 -33 36 -72 40 -112 1 -9 5 -16 10
-15 14 3 48 -105 42 -131 -4 -16 -2 -21 6 -17 8 6 8 2 0 -14 -7 -11 -8 -21 -2
-21 10 0 26 -47 22 -67 -1 -7 3 -13 9 -13 5 0 10 -4 10 -10 0 -5 -9 -10 -20
-10 -20 0 -55 -10 -261 -75 -115 -35 -175 -64 -137 -65 9 0 19 4 23 10 3 5 12
7 19 4 7 -3 18 2 25 10 7 8 19 12 27 9 8 -3 14 1 15 8 0 8 4 5 9 -6 13 -31 12
-37 -10 -30 -11 4 -20 2 -20 -4 0 -6 9 -11 20 -11 15 0 20 -7 20 -24 0 -14 5
-28 11 -31 13 -9 27 4 14 13 -6 4 -11 31 -11 61 -1 44 0 51 9 35 11 -19 13
-24 15 -55 2 -18 59 -32 68 -17 3 4 -9 8 -25 8 -36 0 -42 17 -8 23 l22 4 -22
2 c-17 1 -23 7 -23 26 0 14 5 25 10 25 6 0 10 -7 10 -15 0 -8 5 -15 10 -15 6
0 10 9 10 21 0 12 4 17 11 14 6 -4 16 0 22 8 14 17 57 29 57 15 0 -12 42 0 55
17 6 7 25 12 43 11 18 -1 32 1 32 6 0 4 9 8 21 8 16 0 20 -4 15 -17 -4 -12 0
-10 12 5 10 13 27 23 38 22 10 -1 21 -1 24 0 15 5 48 12 68 13 12 0 22 5 22 9
0 4 8 8 18 8 9 0 36 7 59 15 23 8 57 17 75 20 18 3 59 12 91 20 61 16 105 20
94 9 -3 -4 1 -13 9 -21 8 -9 13 -20 11 -27 -2 -6 5 -16 17 -23 17 -10 18 -12
4 -13 -9 0 -20 -4 -23 -10 -3 -6 1 -7 10 -4 16 6 55 -21 55 -38 0 -10 52 -63
76 -76 9 -5 14 -15 10 -21 -4 -6 -12 -9 -17 -6 -5 4 -9 2 -9 -3 0 -6 18 -8 42
-5 29 4 39 3 34 -5 -4 -7 -2 -12 3 -12 22 0 26 -2 34 -16 4 -8 15 -14 22 -14
25 0 17 -19 -10 -26 -14 -3 -25 -10 -25 -15 0 -6 7 -6 18 0 25 13 84 6 98 -14
7 -9 15 -16 18 -16 26 3 35 -1 30 -14 -5 -11 2 -14 31 -11 24 1 39 -2 42 -11
3 -7 10 -13 17 -12 25 3 47 -1 42 -9 -2 -4 12 -9 32 -10 20 -2 43 -8 51 -15 8
-7 26 -12 40 -13 68 -1 92 -5 87 -12 -3 -5 59 -9 137 -9 128 -1 135 0 67 7
-270 32 -394 61 -536 125 -104 48 -165 86 -245 156 -37 32 -70 55 -74 51 -5
-4 -5 -2 -2 4 3 6 -9 31 -27 56 -17 25 -40 65 -51 88 -16 36 -22 41 -44 35
-14 -3 -124 -31 -244 -61 -120 -31 -225 -53 -233 -50 -8 3 -14 1 -14 -5 0 -6
-6 -9 -12 -6 -7 2 -12 10 -10 16 1 7 -1 10 -6 7 -12 -7 -37 98 -27 113 4 7 1
20 -7 29 -12 15 -47 130 -53 172 -1 8 -5 26 -9 39 -6 18 -10 20 -17 10 -9 -14
-19 -9 -23 13 -5 25 -18 48 -27 48 -5 0 -9 -3 -9 -8z"/>
<path d="M2820 847 c0 -12 62 -97 70 -97 12 0 -25 62 -50 85 -11 10 -20 15
-20 12z"/>
<path d="M950 832 c0 -8 10 -16 21 -19 l22 -6 -23 -17 c-22 -17 -22 -17 11
-12 19 3 28 7 21 9 -6 3 -10 9 -6 14 3 5 -3 12 -13 16 -10 4 -21 11 -25 17 -5
7 -8 6 -8 -2z"/>
<path d="M94 803 c3 -16 8 -48 12 -73 3 -25 8 -52 9 -60 2 -8 4 -24 4 -34 1
-11 4 -17 7 -14 9 9 -18 208 -28 208 -5 0 -7 -12 -4 -27z"/>
<path d="M58 788 c-2 -21 0 -38 4 -38 5 0 4 -9 -2 -19 -13 -26 -13 -34 2 -25
6 4 8 3 4 -4 -3 -6 -2 -13 4 -17 5 -3 10 -22 10 -41 0 -19 4 -34 9 -34 6 0 9
-8 9 -17 -1 -17 8 -91 15 -123 22 -104 32 -103 17 1 -17 117 -52 312 -60 334
-6 16 -8 13 -12 -17z"/>
<path d="M1830 786 c0 -22 37 -103 52 -112 5 -3 4 2 -2 12 -6 11 -19 42 -30
69 -10 28 -19 41 -20 31z"/>
<path d="M870 769 c-30 -9 -48 -18 -40 -19 11 -1 9 -4 -5 -10 -18 -8 -17 -9 8
-9 16 -1 26 4 25 12 -2 7 10 13 27 15 28 3 54 18 44 25 -2 2 -29 -4 -59 -14z"/>
<path d="M30 734 c0 -14 4 -23 9 -20 5 3 7 15 4 26 -7 28 -13 25 -13 -6z"/>
<path d="M790 751 c-8 -6 -17 -8 -21 -5 -4 2 -10 0 -14 -6 -9 -15 18 -12 41 5
21 16 17 20 -6 6z"/>
<path d="M2350 742 c0 -7 0 -14 0 -17 0 -3 -9 -14 -20 -25 -11 -11 -37 -55
-59 -98 -22 -43 -46 -84 -55 -91 -9 -8 -16 -19 -16 -25 0 -12 -24 -29 -85 -60
-61 -31 -238 -29 -319 3 -72 29 -124 80 -153 152 -19 47 -22 50 -22 24 -1 -42
37 -103 87 -142 104 -79 301 -97 430 -38 68 31 120 81 129 125 3 16 11 31 19
34 8 3 14 14 14 24 0 11 7 25 15 32 8 7 15 19 15 26 0 8 3 14 8 14 14 0 33 53
22 64 -7 7 -10 6 -10 -2z"/>
<path d="M2880 733 c0 -5 8 -35 18 -68 12 -37 16 -68 11 -80 -11 -30 -11 -77
1 -70 6 3 10 -1 10 -10 0 -10 -5 -13 -12 -9 -8 4 -10 3 -5 -2 9 -9 13 -10 43
-13 8 0 12 -5 9 -11 -3 -5 -1 -10 4 -10 16 0 14 8 -14 44 -15 20 -23 40 -19
50 3 9 9 14 13 11 4 -2 8 2 8 10 0 8 -4 15 -9 15 -4 0 -8 5 -8 11 0 5 5 7 10
4 6 -3 0 11 -12 32 l-22 38 27 -24 c15 -14 27 -20 27 -15 0 5 -13 18 -29 29
-16 10 -29 22 -29 25 2 25 -4 50 -12 50 -5 0 -10 -3 -10 -7z"/>
<path d="M2239 643 c-19 -38 -36 -70 -40 -73 -3 -3 -3 -13 0 -23 5 -13 18 5
48 67 24 47 38 88 33 91 -5 3 -23 -25 -41 -62z"/>
<path d="M2946 679 c21 -23 23 -23 20 -2 -2 9 -11 17 -20 19 -17 2 -17 2 0
-17z"/>
<path d="M685 683 c-29 -7 -45 -23 -44 -42 1 -14 2 -14 6 1 2 10 19 19 44 23
21 4 41 11 45 16 5 9 -17 10 -51 2z"/>
<path d="M571 648 c-1 -9 -9 -21 -18 -27 -15 -8 -16 -12 -5 -22 10 -11 12 -10
12 4 0 15 17 22 43 18 4 0 7 4 7 9 0 6 -6 10 -14 10 -8 0 -17 6 -19 13 -3 7
-6 5 -6 -5z"/>
<path d="M157 633 c-2 -5 4 -33 14 -63 17 -51 18 -52 14 -15 -3 22 -5 50 -5
63 0 21 -14 30 -23 15z"/>
<path d="M143 468 c1 -60 5 -108 9 -108 16 0 18 89 4 150 l-15 65 2 -107z"/>
<path d="M350 530 c0 -5 5 -10 11 -10 6 0 8 -7 4 -17 -4 -13 -3 -15 5 -7 6 6
8 18 4 27 -7 18 -24 23 -24 7z"/>
<path d="M205 510 c-3 -5 1 -10 10 -10 13 0 16 -6 11 -24 -3 -14 -2 -28 4 -31
5 -3 10 -14 10 -24 0 -9 7 -26 16 -37 15 -19 15 -19 10 1 -2 11 -7 46 -11 78
-5 47 -10 57 -25 57 -10 0 -22 -4 -25 -10z"/>
<path d="M1130 508 c0 -4 12 -14 28 -21 15 -6 33 -17 40 -24 14 -14 26 -16 54
-14 9 1 19 -3 23 -9 3 -5 14 -10 23 -10 9 0 -8 16 -38 37 -30 20 -57 39 -60
42 -8 10 -70 9 -70 -1z"/>
<path d="M470 505 c0 -6 4 -15 9 -20 5 -6 11 -19 14 -30 5 -20 5 -19 6 1 0 11
-6 29 -14 40 -8 10 -15 14 -15 9z"/>
<path d="M1 484 c0 -21 54 -69 63 -56 6 10 -1 20 -37 51 -25 23 -27 23 -26 5z"/>
<path d="M195 438 c3 -31 9 -67 15 -80 7 -17 8 -8 3 32 -9 79 -24 120 -18 48z"/>
<path d="M566 470 c3 -14 10 -29 15 -34 14 -16 10 6 -7 34 l-15 25 7 -25z"/>
<path d="M294 465 c-16 -12 -16 -14 -3 -15 9 0 22 7 29 15 16 19 0 19 -26 0z"/>
<path d="M2880 460 c-9 -17 -7 -24 12 -40 13 -11 19 -19 14 -20 -5 0 -2 -8 5
-17 12 -15 12 -16 -1 -8 -12 6 -12 5 -3 -5 13 -14 32 -6 29 13 -6 29 -19 47
-33 47 -11 0 -13 7 -9 25 8 30 1 32 -14 5z"/>
<path d="M2255 459 c-5 -8 -4 -14 3 -17 7 -2 19 -17 28 -34 8 -16 28 -34 43
-39 16 -6 33 -20 39 -32 l11 -22 0 22 c1 12 6 23 13 25 6 2 8 10 4 16 -10 17
-24 15 -28 -5 -3 -16 -7 -14 -31 9 -15 15 -27 24 -27 20 0 -4 -11 10 -24 32
-17 28 -25 35 -31 25z"/>
<path d="M0 428 c0 -19 2 -20 10 -8 9 13 11 13 20 0 5 -8 10 -10 10 -4 0 12
-20 34 -32 34 -4 0 -8 -10 -8 -22z"/>
<path d="M418 443 c6 -2 12 -11 12 -19 0 -8 5 -14 10 -14 6 0 10 9 10 20 0 14
-6 20 -22 19 -13 0 -17 -3 -10 -6z"/>
<path d="M2865 410 c3 -5 1 -10 -5 -10 -15 0 17 -47 38 -55 12 -4 10 0 -5 15
-23 21 -32 47 -13 35 6 -3 7 1 4 9 -3 9 -10 16 -16 16 -5 0 -6 -4 -3 -10z"/>
<path d="M66 384 c-5 -13 -3 -14 6 -7 7 6 20 13 28 16 10 4 8 6 -6 6 -12 1
-25 -6 -28 -15z"/>
<path d="M2947 357 c-3 -8 3 -27 14 -43 11 -17 19 -23 19 -14 0 13 1 13 10 0
5 -8 10 -10 10 -4 0 5 -11 25 -24 42 -17 23 -25 29 -29 19z"/>
<path d="M2830 348 c0 -6 3 -8 7 -5 3 4 12 -1 20 -11 13 -15 13 -15 3 6 -11
23 -30 30 -30 10z"/>
<path d="M1479 324 c-7 -9 -24 -20 -37 -25 -14 -5 -22 -12 -19 -15 8 -8 77 35
77 47 0 13 -6 11 -21 -7z"/>
<path d="M2880 333 c0 -6 5 -15 10 -18 8 -5 8 -11 0 -20 -8 -9 -8 -15 0 -20 5
-3 10 -5 11 -3 6 26 5 40 -7 55 -7 10 -14 13 -14 6z"/>
<path d="M400 300 c8 -5 22 -10 30 -10 13 0 13 1 0 10 -8 5 -22 10 -30 10 -13
0 -13 -1 0 -10z"/>
<path d="M2370 282 c0 -10 -5 -23 -12 -30 -18 -18 -4 -24 26 -11 14 7 26 19
25 28 0 10 -2 12 -6 4 -8 -21 -25 -14 -18 7 4 11 2 20 -4 20 -6 0 -11 -8 -11
-18z"/>
<path d="M1813 261 c-64 -31 -108 -46 -165 -56 -21 -4 -35 -11 -32 -16 7 -12
-13 -12 -35 0 -10 6 -23 6 -32 0 -10 -6 -6 -9 16 -10 17 0 24 -3 17 -6 -6 -2
-10 -9 -6 -14 3 -5 -2 -9 -10 -9 -9 0 -16 4 -16 9 0 5 -10 13 -21 16 -15 5
-18 9 -9 15 8 5 -5 13 -34 23 -26 9 -44 12 -41 6 4 -5 -1 -9 -10 -9 -9 0 -13
-5 -10 -11 4 -6 9 -8 12 -5 3 2 13 -3 23 -11 26 -23 178 -81 258 -99 108 -24
405 -30 527 -10 123 21 167 32 228 58 66 29 59 41 -10 17 -113 -39 -267 -66
-384 -68 -63 -1 -111 0 -108 3 5 5 23 8 124 21 81 10 276 77 263 90 -2 2 -42
-9 -88 -25 -114 -38 -210 -57 -360 -69 -111 -9 -136 -8 -219 9 -52 11 -96 20
-98 20 -1 0 -3 4 -3 10 0 5 19 14 43 20 57 14 194 68 234 92 l33 20 52 -26
c29 -14 77 -30 107 -36 62 -12 222 -11 266 0 27 8 25 8 -15 7 -25 0 -50 2 -55
4 -6 3 -40 5 -77 4 -38 0 -68 3 -68 8 0 5 -7 7 -15 3 -16 -6 -59 6 -115 32
-58 26 -102 25 -167 -7z m-324 -60 c7 -5 9 -11 4 -14 -6 -4 -19 0 -29 8 -15
11 -16 14 -4 15 8 0 21 -4 29 -9z"/>
<path d="M1526 261 c-3 -5 1 -12 10 -15 10 -4 13 -13 9 -26 -3 -11 -2 -20 3
-20 18 0 21 14 6 41 -16 31 -20 34 -28 20z"/>
<path d="M10 245 c-10 -13 -9 -15 9 -15 12 0 21 6 21 15 0 8 -4 15 -9 15 -5 0
-14 -7 -21 -15z"/>
<path d="M105 231 c-3 -6 4 -15 15 -21 13 -7 20 -7 20 0 0 5 -5 10 -11 10 -5
0 -7 5 -4 10 3 6 2 10 -4 10 -5 0 -12 -4 -16 -9z"/>
<path d="M2756 223 c20 -17 22 -49 3 -37 -5 3 -9 0 -9 -5 0 -15 12 -14 34 2
18 13 17 15 -15 36 -21 14 -26 16 -13 4z"/>
<path d="M2973 225 c0 -9 4 -14 9 -13 5 2 10 8 10 13 0 5 -5 11 -10 13 -5 1
-9 -4 -9 -13z"/>
<path d="M150 210 c0 -5 4 -10 8 -10 4 0 8 -9 8 -20 0 -13 -5 -19 -14 -15 -7
2 -10 0 -7 -5 3 -6 17 -10 30 -10 20 0 25 -7 32 -37 4 -21 6 -46 4 -55 -1 -10
3 -18 9 -18 12 0 10 32 -3 85 -3 11 -6 26 -6 34 -1 7 -7 11 -16 7 -11 -4 -15
2 -15 24 0 20 -5 30 -15 30 -8 0 -15 -4 -15 -10z"/>
<path d="M2920 210 c8 -5 22 -10 30 -10 13 0 13 1 0 10 -8 5 -22 10 -30 10
-13 0 -13 -1 0 -10z"/>
<path d="M2450 183 c-8 -3 -28 -11 -45 -18 -16 -7 -43 -16 -60 -20 -16 -4 -24
-10 -18 -12 18 -6 123 26 140 43 15 14 10 17 -17 7z"/>
<path d="M24 143 c15 -82 31 -143 38 -143 11 0 10 18 -4 57 -9 26 -10 38 -1
53 10 14 9 19 -2 24 -8 3 -15 15 -15 26 0 11 -5 20 -11 20 -7 0 -9 -13 -5 -37z"/>
<path d="M2960 165 c-24 -14 -96 -45 -132 -58 -24 -8 -23 -24 2 -37 15 -8 20
-8 18 1 -2 6 12 16 29 23 18 6 32 15 32 21 -1 14 35 24 43 11 5 -7 8 -5 8 5 0
10 7 16 17 15 10 0 19 7 21 17 4 21 -5 21 -38 2z"/>
<path d="M251 133 c-1 -13 4 -23 10 -23 5 0 7 -4 4 -10 -7 -12 2 -12 30 0 19
8 19 9 -3 9 -14 1 -26 10 -32 24 l-9 22 0 -22z"/>
<path d="M2578 103 c-16 -4 -34 -33 -20 -33 4 0 18 9 32 20 24 19 22 22 -12
13z"/>
<path d="M1200 82 c0 -4 9 -8 20 -9 11 -1 18 2 15 8 -7 11 -35 12 -35 1z"/>
<path d="M267 57 c3 -15 9 -27 14 -27 13 0 11 13 -5 35 -13 18 -14 18 -9 -8z"/>
<path d="M2590 70 c0 -4 7 -13 15 -20 12 -10 15 -9 15 4 0 10 5 14 10 11 6 -4
8 -10 6 -14 -3 -4 4 -8 15 -8 19 -2 19 -1 -3 16 -23 18 -58 24 -58 11z"/>
<path d="M2746 68 c2 -4 -5 -9 -16 -13 -11 -3 -20 -10 -20 -15 0 -5 -16 -12
-35 -16 -48 -9 -44 -25 5 -22 22 1 40 6 40 10 0 4 7 8 15 8 8 0 15 7 15 16 0
14 2 15 17 3 15 -12 16 -12 10 5 -6 15 -4 17 13 13 13 -3 20 0 20 8 0 9 -11
13 -34 12 -19 -1 -32 -5 -30 -9z"/>
<path d="M2160 34 l-85 -13 88 5 c49 3 98 9 110 14 21 8 21 9 -3 8 -14 0 -63
-7 -110 -14z"/>
<path d="M1315 30 c-7 -12 2 -12 30 0 19 8 19 9 -2 9 -12 1 -25 -3 -28 -9z"/>
<path d="M2410 31 c0 -13 29 -35 37 -28 3 4 -2 9 -11 13 -9 3 -13 10 -10 15 3
5 0 9 -5 9 -6 0 -11 -4 -11 -9z"/>
<path d="M220 15 c0 -8 5 -15 10 -15 6 0 10 7 10 15 0 8 -4 15 -10 15 -5 0
-10 -7 -10 -15z"/>
</g>
</svg>
