<?xml version="1.0" encoding="utf-8"?>
<!-- Generator: Adobe Illustrator 25.1.0, SVG Export Plug-In . SVG Version: 6.00 Build 0)  -->
<svg version="1.1" id="Layer_1" xmlns="http://www.w3.org/2000/svg" xmlns:xlink="http://www.w3.org/1999/xlink" x="0px" y="0px"
	 viewBox="0 0 256 256" style="enable-background:new 0 0 256 256;" xml:space="preserve">
<style type="text/css">
	.st0{fill:#FFFFFF;}
</style>
<g transform="translate(0.000000,173.000000) scale(0.100000,-0.100000)">
	<path class="st0" d="M46.3,1681.5C5.4,1635.7,0,1511.7,0,444.6C0-668.3,2.7-743.8,49-784.2C92.6-824.6,182.5-830,729.9-830h631.8
		v501.2v501.2l-163.4-10.8l-163.4-8.1v196.7v194h163.4h163.4v183.2c0,99.7,13.6,229.1,30,288.3c70.8,253.3,364.9,388,702.6,320.7
		c84.4-16.2,84.4-18.9,84.4-188.6V975.5h-158c-212.4,0-250.6-40.4-250.6-264.1V544.3h193.4h193.4l-19.1-180.5
		c-10.9-102.4-24.5-188.6-30-194c-5.4-8.1-84.4-8.1-174.3-5.4l-163.4,5.4v-498.5V-830h348.6c305,0,356.8,5.4,394.9,48.5
		c40.9,45.8,46.3,169.8,46.3,1236.9c0,1112.9-2.7,1188.4-49,1228.8s-171.6,45.8-1236.4,45.8C160.7,1730,87.1,1727.3,46.3,1681.5z
		 M2472.9,1635.7c24.5-8.1,32.7-269.5,32.7-1183c0-1374.3,43.6-1236.9-389.4-1223.4l-277.8,8.1l-2.7,393.4
		c-2.7,218.3,5.4,409.6,16.3,428.5c10.9,18.9,79,37.7,152.5,45.8c70.8,5.4,136.2,13.5,141.6,21.6c21.8,18.9,57.2,237.1,59.9,342.2
		c0,118.6-24.5,137.4-204.3,145.5c-73.5,2.7-144.3,5.4-152.5,8.1c-10.9,2.7-19.1,51.2-19.1,110.5c-2.7,142.8,49,188.6,209.7,188.6
		c84.4,0,144.3,13.5,166.1,40.4c40.9,48.5,40.9,361.1-2.7,404.2c-13.6,13.5-133.4,26.9-264.2,26.9c-277.8,0-405.8-48.5-531.1-207.5
		c-70.8-86.2-81.7-126.7-92.6-328.8c-16.3-253.3-2.7-234.4-198.8-242.5C994,609,980.4,582,980.4,355.7
		c0-242.5,21.8-269.5,217.9-269.5H1310l-8.2-423.1l-8.2-425.8l-582.8,5.4c-321.4,2.7-601.9,13.5-620.9,18.9
		C62.6-727.6,54.5-501.2,54.5,428.4c0,633.3,10.9,1166.8,21.8,1183c10.9,18.9,43.6,35,70.8,40.4
		C220.6,1668,2429.3,1651.9,2472.9,1635.7z"/>
</g>
</svg>
