<svg id="Layer_1" data-name="Layer 1" xmlns="http://www.w3.org/2000/svg" width="256" height="256" viewBox="0 0 256 256"><defs><style>.cls-1{fill:#fff;}</style></defs><path class="cls-1" d="M45.5814,2.0647C28.06,6.9352,13.0421,19.9232,4.8743,37.3757L0,47.9284V206.2192l3.03,7.8469c6.9821,17.7231,23.0541,33.2816,40.18,38.6933,7.6408,2.3,13.569,2.5705,83.2584,2.9764,69.8212.5411,75.6177.4058,82.995-1.8941a65.3589,65.3589,0,0,0,39.7849-34.4993l4.8743-10.1468,1.0539-33.2817c.6587-18.2643.9222-54.9282.79-81.4453L255.5719,46.44l-4.8744-10.1468c-8.036-16.7761-21.078-28.4112-37.8088-33.6875C204.9844.0353,200.5053-.1,128.5764.0353,66.66.0353,51.3778.4412,45.5814,2.0647ZM214.7331,7.8822c16.072,6.6293,26.3476,16.1,32.8027,29.8994l4.0839,8.7939.1317,66.9692c.1318,85.7746-.3952,93.2156-5.7964,104.4448a58.61,58.61,0,0,1-35.4376,30.8464c-8.3,2.5706-12.12,2.7058-82.6,2.7058-81.4142.1353-80.0968.2706-96.0371-8.5233-13.569-7.3057-24.3715-22.7289-27.27-39.0992-.9221-4.87-1.3173-34.4992-1.0539-81.8512l.3952-74.14,4.2157-9.2C14.7547,24.5231,26.6111,13.97,43.4736,7.2058a50.2545,50.2545,0,0,1,7.2456-1.6235A20.9609,20.9609,0,0,0,55.9887,4.5c.2635-.4059,34.3836-.4059,75.7494-.2706l75.0907.4058Z" transform="translate(0 0)"/><path class="cls-1" d="M63.2343,16.4056C45.0544,19.9232,28.06,33.4523,20.0242,51.04l-4.2156,9.0646-.3952,62.2339c-.2635,43.1579,0,64.6692,1.0539,70.3515A59.39,59.39,0,0,0,55.33,238.0126c7.5091,2.5706,10.6708,2.7058,72.8511,2.7058l64.9469-.1352,8.8265-3.247c4.8743-1.7588,8.9581-3.9235,9.2216-4.7352a2.4277,2.4277,0,0,1,2.1078-1.3529c2.1078,0,13.4373-11.3645,17.39-17.5879a64.7467,64.7467,0,0,0,5.7964-12.8527c2.6348-7.7116,2.8983-11.635,3.557-71.2984.6586-61.5576.6586-63.4516-2.1078-72.6514-5.9283-20.1584-24.24-36.7993-44.791-40.7227C184.17,14.3762,72.1925,14.6468,63.2343,16.4056ZM192.3376,20.329A56.373,56.373,0,0,1,231.859,50.77l3.9521,7.9821.2635,62.234c.1318,36.2581-.2635,65.6163-1.0539,70.2162-3.4252,21.1054-20.1559,39.0991-40.8388,43.97-3.4252.8118-30.4315,1.4882-66.396,1.4882-50.7191,0-62.0486-.4059-68.5038-2.1646-20.2876-5.2764-34.9106-21.2408-38.8627-41.805-1.0539-5.6823-1.3174-27.1936-1.0539-70.3515l.3952-62.2339,3.5569-7.8469C28.3237,41.4345,38.731,30.4759,49.27,25.2c8.0361-3.9234,10.0121-4.3293,26.4794-5.0058C109.6061,18.7055,184.17,18.7055,192.3376,20.329Z" transform="translate(0 0)"/><path class="cls-1" d="M187.0681,44.4109c-11.9882,7.5763-13.9643,21.6466-4.2157,30.7111,6.4552,6.0881,13.7008,7.17,21.7368,2.9764,14.2277-7.17,15.0182-25.57,1.5809-33.4169C200.11,41.1639,192.3376,41.0286,187.0681,44.4109Zm15.545,3.3823c6.9822,2.9764,8.8265,5.6822,8.8265,12.9879,0,8.5234-5.006,14.3409-13.1738,15.1526-10.8025.9471-17.126-4.6-17.126-15.1526.1318-7.441,2.24-10.5527,8.8265-12.8527C196.29,45.4932,197.4754,45.4932,202.6131,47.7932Z" transform="translate(0 0)"/><path class="cls-1" d="M116.9834,64.9751A68.8779,68.8779,0,0,0,87.8693,77.5572c-9.4851,7.1705-14.8864,14.07-20.2877,25.9759s-6.5869,28.4112-3.03,41.94c8.036,30.7111,40.18,51.546,72.1924,46.8108,32.8028-4.87,56.2522-31.5229,56.2522-63.8575,0-34.3639-25.4255-61.2869-60.5995-64.128A80.4661,80.4661,0,0,0,116.9834,64.9751Zm32.671,7.3058c15.15,5.141,28.06,17.3172,35.0424,32.6052,3.4252,7.3057,3.6886,9.335,3.6886,23.5406,0,15.0174-.1317,15.9644-4.4791,25.0289-18.97,39.37-72.5876,47.3519-102.36,15.2879-10.8026-11.635-15.0182-22.5936-15.0182-39.7756,0-13.5291,2.503-22.3231,9.3534-32.8758C90.8993,73.0926,122.2529,62.9458,149.6544,72.2809Z" transform="translate(0 0)"/><path class="cls-1" d="M113.9534,77.6925c-14.0959,4.194-27.4015,15.9644-34.12,30.4405-2.8983,6.494-3.4252,9.2-3.4252,20.97,0,12.3115.3952,14.3409,3.9521,21.6466,10.8025,22.5936,34.2519,34.77,57.4378,29.7641,16.4673-3.5176,29.2459-13.935,37.15-30.4406,3.82-7.9822,4.2156-9.8762,4.2156-21.6466,0-11.9056-.3952-13.6644-4.3474-21.9172-5.533-11.5-16.9942-22.7289-27.5332-26.7876C137.5345,75.7984,123.4386,74.9867,113.9534,77.6925Zm34.3837,6.9c9.09,4.194,19.7607,15.1526,23.9763,24.4877,2.3713,5.2763,2.8982,8.9292,2.8982,19.3466,0,11.2292-.3952,13.8-3.5569,20.2937a55.8937,55.8937,0,0,1-23.0542,23.8113c-6.9821,3.5175-8.8264,3.9234-20.8146,3.9234-11.4612,0-14.0959-.4059-20.6829-3.6528-9.09-4.3294-18.0481-13.2586-23.0541-23-3.2935-6.4939-3.6887-8.5233-3.6887-20.6995s.3952-14.3409,3.6887-20.97C96.3005,83.6453,124.0973,73.4985,148.3371,84.5924Z" transform="translate(0 0)"/></svg>